<svg width="601" height="399" viewBox="0 0 601 399" fill="none" xmlns="http://www.w3.org/2000/svg">
<path d="M304.462 112.143C299.103 103.282 292.753 93.8206 282.808 90.9271C271.292 87.5763 259.461 94.2328 249.427 100.801C219.417 120.446 190.517 141.735 162.859 164.571L162.889 164.915C184.422 163.43 205.954 161.946 227.487 160.461C243.045 159.389 259.137 158.168 272.885 150.81C278.102 148.018 283.188 144.288 289.099 144.028C296.444 143.705 302.849 148.834 307.881 154.192C337.652 185.888 346.268 234.358 379.668 262.206C358.607 210.275 333.459 160.097 304.462 112.143V112.143Z" fill="#F2F2F2"/>
<path d="M487.46 380.981C484.168 376.825 482.822 375.852 479.575 371.657C453.133 337.465 428.28 302.118 405.015 265.616C389.213 240.825 374.194 215.558 359.959 189.815C353.182 177.577 346.59 165.242 340.185 152.812C335.214 143.174 330.355 133.478 325.606 123.724C324.248 120.938 322.929 118.139 321.616 115.334C318.522 108.738 315.485 102.11 312.225 95.603C308.51 88.1869 303.988 80.4122 297.166 75.4297C294.061 73.0691 290.349 71.6409 286.462 71.3118C280.909 70.9532 275.784 73.2459 270.967 75.7499C235.724 94.1236 202.73 117.16 172.887 143.372C142.967 169.643 116.224 199.324 93.2023 231.808C92.498 232.813 90.8325 231.853 91.5434 230.841C94.3427 226.883 97.1974 222.968 100.108 219.096C136.294 170.978 180.664 129.6 231.189 96.8518C239.69 91.3442 248.35 86.0948 257.17 81.1038C261.615 78.5869 266.08 76.1021 270.621 73.771C275.073 71.4847 279.801 69.4289 284.886 69.3521C302.194 69.0831 311.155 88.68 317.311 101.866C319.246 106.016 321.203 110.153 323.185 114.278C330.673 129.936 338.449 145.451 346.514 160.824C351.491 170.315 356.577 179.75 361.772 189.13C377.939 218.34 395.123 246.958 413.323 274.985C437.433 312.11 461.351 344.906 488.818 379.624C489.574 380.584 488.222 381.955 487.46 380.981Z" fill="#E4E4E4"/>
<path d="M171.176 133.695C170.171 132.575 169.171 131.454 168.159 130.333C160.178 121.508 151.614 112.786 140.654 107.726C135.428 105.238 129.724 103.916 123.936 103.852C117.953 103.871 112.105 105.44 106.577 107.637C103.964 108.68 101.408 109.865 98.8906 111.127C96.0144 112.574 93.1895 114.118 90.3777 115.674C85.0995 118.594 79.8897 121.643 74.7484 124.819C64.5187 131.14 54.6094 137.943 45.0205 145.229C40.0496 149.008 35.1814 152.91 30.4158 156.936C25.9832 160.676 21.6403 164.517 17.3871 168.457C16.4776 169.296 15.1195 167.939 16.0291 167.1C17.15 166.056 18.2838 165.018 19.4176 163.994C22.6203 161.099 25.8744 158.26 29.1797 155.476C35.2071 150.391 41.3905 145.503 47.73 140.81C57.5881 133.51 67.7856 126.704 78.3224 120.394C83.5879 117.243 88.9258 114.224 94.3361 111.338C95.9697 110.467 97.6224 109.615 99.2941 108.808C103.087 106.895 107.029 105.291 111.08 104.012C116.819 102.156 122.891 101.559 128.881 102.263C134.665 103.105 140.237 105.032 145.305 107.944C156.066 113.957 164.412 123.256 172.534 132.331C173.354 133.253 172.003 134.617 171.176 133.695Z" fill="#E4E4E4"/>
<path d="M391.668 225.146L417.454 215.716L430.257 211.035C434.427 209.51 438.587 207.774 442.897 206.682C446.643 205.612 450.621 205.663 454.338 206.828C457.653 208.055 460.688 209.935 463.262 212.358C465.891 214.779 468.337 217.391 470.581 220.173C473.368 223.522 476.114 226.907 478.873 230.28C490.258 244.201 501.569 258.182 512.805 272.224C524.042 286.266 535.203 300.367 546.289 314.528C557.401 328.724 568.438 342.979 579.398 357.293C580.741 359.047 582.082 360.801 583.423 362.556C584.163 363.526 585.833 362.57 585.082 361.587C574.041 347.128 562.923 332.729 551.728 318.389C540.506 304.015 529.206 289.702 517.828 275.45C506.451 261.198 494.997 247.008 483.466 232.879C480.593 229.359 477.715 225.844 474.833 222.332C472.402 219.369 469.998 216.374 467.331 213.617C462.436 208.556 456.321 204.083 449.001 203.961C444.697 203.89 440.531 205.255 436.532 206.702C432.222 208.261 427.921 209.85 423.616 211.424L397.649 220.92L391.157 223.293C390.005 223.715 390.503 225.572 391.668 225.146L391.668 225.146Z" fill="#E4E4E4"/>
<path d="M137.261 118.831C124.157 112.097 107.375 113.416 95.3334 121.829C118.302 125.79 141.019 131.091 163.369 137.705C154.088 132.267 146.828 123.747 137.261 118.831Z" fill="#F2F2F2"/>
<path d="M95.2044 121.805L92.6817 123.855C93.535 123.138 94.4221 122.465 95.3334 121.829C95.2904 121.821 95.2475 121.813 95.2044 121.805Z" fill="#F2F2F2"/>
<path d="M462.291 225.24C459.752 222.151 457.008 218.916 453.211 217.662L449.666 217.801C476.65 265.473 513.093 307.127 556.759 340.209C525.269 301.886 493.78 263.563 462.291 225.24Z" fill="#F2F2F2"/>
<path d="M241.865 199.756C243.506 205.715 247.201 210.901 252.298 214.398C254.269 215.739 256.6 217.026 257.274 219.312C257.629 220.769 257.41 222.307 256.664 223.608C255.918 224.893 255.012 226.076 253.966 227.13L253.87 227.488C248.98 224.591 244.328 220.926 241.627 215.925C238.926 210.925 238.549 204.371 241.865 199.756" fill="#F2F2F2"/>
<path d="M404.669 341.57C406.31 347.529 410.005 352.715 415.102 356.212C417.073 357.553 419.404 358.84 420.078 361.126C420.433 362.584 420.214 364.122 419.468 365.423C418.723 366.707 417.816 367.891 416.77 368.944L416.674 369.302C411.784 366.405 407.132 362.74 404.431 357.74C401.73 352.739 401.353 346.186 404.669 341.57" fill="#F2F2F2"/>
<path d="M79.7598 331.79C81.4002 337.749 85.0957 342.935 90.1926 346.432C92.1631 347.773 94.4945 349.06 95.1687 351.346C95.5233 352.803 95.3048 354.341 94.5582 355.642C93.813 356.927 92.9063 358.11 91.8603 359.164L91.7648 359.522C86.8748 356.625 82.2226 352.96 79.5214 347.959C76.8202 342.959 76.4431 336.405 79.7598 331.79" fill="#F2F2F2"/>
<path d="M453.65 71.2565C473.331 71.2565 489.285 55.3052 489.285 35.6282C489.285 15.9513 473.331 0 453.65 0C433.969 0 418.015 15.9513 418.015 35.6282C418.015 55.3052 433.969 71.2565 453.65 71.2565Z" fill="white"/>
<path d="M302.199 357.998C301.658 358.023 301.122 357.881 300.665 357.591C300.207 357.302 299.85 356.878 299.641 356.379C299.432 355.879 299.382 355.328 299.497 354.799C299.612 354.27 299.887 353.789 300.285 353.421C300.351 353.157 300.399 352.966 300.466 352.702C300.442 352.644 300.418 352.587 300.394 352.529C297.962 346.732 282.447 362.892 281.776 368.34C281.481 370.748 281.605 373.189 282.144 375.554C277.119 364.593 274.509 352.68 274.492 340.623C274.491 337.597 274.659 334.574 274.996 331.567C275.274 329.102 275.66 326.654 276.153 324.224C278.847 311.039 284.63 298.681 293.029 288.165C297.832 288.433 302.041 287.702 302.447 278.395C302.52 276.74 303.748 275.306 304.018 273.675C303.56 273.736 303.094 273.773 302.635 273.803C302.492 273.811 302.342 273.818 302.199 273.826L302.145 273.828C301.642 273.851 301.142 273.727 300.707 273.472C300.271 273.218 299.919 272.843 299.692 272.392C299.465 271.942 299.373 271.435 299.427 270.934C299.481 270.433 299.679 269.958 299.996 269.566C300.194 269.322 300.392 269.079 300.591 268.835C300.891 268.46 301.2 268.091 301.5 267.716C301.535 267.68 301.568 267.642 301.598 267.603C301.944 267.175 302.29 266.754 302.635 266.325C302.004 265.346 301.155 264.525 300.155 263.928C296.689 261.899 291.909 263.304 289.406 266.438C286.895 269.572 286.421 273.969 287.293 277.884C288.151 281.216 289.569 284.377 291.488 287.233C291.3 287.474 291.104 287.707 290.916 287.947C287.481 292.364 284.487 297.106 281.977 302.106C282.687 296.56 274.004 276.532 270.645 272.29C266.612 267.194 258.34 269.418 257.629 275.878C257.622 275.94 257.616 276.003 257.609 276.065C258.108 276.347 258.596 276.645 259.074 276.961C259.674 277.362 260.139 277.935 260.408 278.605C260.677 279.274 260.738 280.009 260.581 280.714C260.425 281.419 260.06 282.06 259.533 282.553C259.007 283.046 258.343 283.369 257.63 283.479L257.557 283.491C250.88 293.022 272.284 317.83 277.642 312.26C275.12 319.405 273.538 326.847 272.936 334.4C272.595 338.856 272.615 343.332 272.996 347.785L272.974 347.627C271.783 337.929 251.361 323.51 245.397 324.711C241.962 325.403 238.578 325.245 239.1 328.71C239.108 328.766 239.117 328.821 239.125 328.876C240.051 329.253 240.952 329.687 241.824 330.176C242.322 330.458 242.811 330.756 243.288 331.072C243.889 331.473 244.354 332.046 244.623 332.716C244.892 333.385 244.952 334.12 244.796 334.825C244.64 335.53 244.274 336.171 243.748 336.664C243.221 337.157 242.558 337.48 241.844 337.59L241.771 337.601C241.718 337.609 241.673 337.617 241.621 337.624C238.582 348.079 261.12 364.953 274.823 359.584H274.83C276.188 365.484 278.156 371.226 280.701 376.719H301.673C301.748 376.486 301.816 376.246 301.884 376.013C299.942 376.135 297.994 376.019 296.081 375.667C297.637 373.758 299.193 371.834 300.749 369.925C300.783 369.89 300.816 369.852 300.846 369.813C301.636 368.836 302.432 367.866 303.222 366.889L303.222 366.888C303.264 363.893 302.92 360.905 302.199 357.998L302.199 357.998ZM278.183 310.764L278.194 310.749L278.183 310.779V310.764ZM273.537 352.632L273.357 352.227C273.365 351.933 273.365 351.64 273.357 351.34C273.357 351.257 273.342 351.174 273.342 351.092C273.41 351.61 273.47 352.129 273.545 352.647L273.537 352.632Z" fill="#05A1B8"/>
<path d="M517.958 8.29257C500.687 5.95861 480.97 15.2916 476.494 32.131C475.366 29.137 473.315 26.579 470.638 24.8266C467.961 23.0742 464.795 22.2181 461.599 22.3821C458.404 22.546 455.343 23.7215 452.859 25.7387C450.375 27.7559 448.597 30.5104 447.781 33.6042L449.758 35.02C486.768 43.0219 525.079 42.8487 562.015 34.5125C550.002 21.8897 535.228 10.6265 517.958 8.29257Z" fill="#F0F0F0"/>
<path d="M443.892 55.7969C426.622 53.4629 406.905 62.7959 402.429 79.6353C401.301 76.6413 399.25 74.0833 396.573 72.3309C393.895 70.5785 390.73 69.7224 387.534 69.8864C384.338 70.0504 381.277 71.2258 378.793 73.243C376.309 75.2602 374.531 78.0147 373.716 81.1085L375.693 82.5243C412.703 90.5262 451.014 90.353 487.95 82.0168C475.937 69.394 461.163 58.1308 443.892 55.7969Z" fill="#F0F0F0"/>
<path d="M594.627 64.7793C594.556 64.7794 594.485 64.7684 594.417 64.7465C409.668 6.33149 246.837 13.9703 142.771 30.6649C128.609 32.936 114.409 35.5591 100.565 38.462C97.031 39.2022 93.3644 39.9956 89.6674 40.8218C85.2523 41.8049 80.8958 42.8173 76.7184 43.8297C74.9143 44.2568 73.1454 44.6872 71.4117 45.1211C68.7857 45.7692 66.1211 46.4446 63.2648 47.1869C60.0731 48.0096 56.8302 48.8726 53.6241 49.752C53.6124 49.7561 53.6004 49.7596 53.5883 49.7623L53.5886 49.7629C49.9674 50.7515 46.3652 51.7687 42.8818 52.7845C40.9965 53.3289 39.176 53.8658 37.4322 54.3959C37.2374 54.4498 37.0648 54.5016 36.8897 54.5549L36.5151 54.6688C36.2981 54.735 36.0839 54.7998 35.8696 54.8612L35.856 54.8653L35.8563 54.866L35.2893 55.042C34.6131 55.2467 33.9532 55.4466 33.3043 55.6458C16.154 60.9316 6.72592 64.692 6.63278 64.7289C6.54761 64.763 6.45655 64.78 6.3648 64.779C6.27305 64.7779 6.1824 64.7588 6.09803 64.7227C6.01366 64.6866 5.93722 64.6343 5.87309 64.5687C5.80895 64.5031 5.75837 64.4255 5.72423 64.3403C5.69009 64.2552 5.67307 64.1641 5.67412 64.0724C5.67517 63.9806 5.69429 63.89 5.73037 63.8057C5.76645 63.7213 5.8188 63.6449 5.88442 63.5808C5.95005 63.5167 6.02766 63.4661 6.11283 63.432C6.20665 63.3951 15.6808 59.6156 32.8935 54.31C33.5448 54.1101 34.2064 53.9102 34.8846 53.7049L35.4114 53.5411C35.4295 53.5343 35.4476 53.5289 35.466 53.5234C35.6792 53.4627 35.8921 53.3979 36.1084 53.3324L36.4837 53.2184C36.6707 53.1618 36.8549 53.1059 37.0436 53.054C38.7754 52.5274 40.6021 51.9891 42.4922 51.4426C45.977 50.4261 49.5825 49.4089 53.2065 48.419C53.2178 48.4149 53.2294 48.4122 53.2406 48.4088V48.4081C56.4579 47.526 59.7128 46.6596 62.9147 45.8341C65.7755 45.0911 68.4452 44.4144 71.0757 43.7649C72.8167 43.3317 74.589 42.9003 76.3926 42.4707C80.5747 41.457 84.9401 40.4432 89.3631 39.4581C93.0659 38.6312 96.7387 37.8357 100.279 37.0948C114.144 34.1872 128.366 31.56 142.55 29.2855C246.765 12.567 409.829 4.91586 594.838 63.4148C594.997 63.465 595.133 63.5705 595.221 63.7122C595.309 63.8538 595.343 64.0223 595.318 64.1872C595.292 64.352 595.209 64.5024 595.082 64.611C594.956 64.7196 594.794 64.7793 594.627 64.7793V64.7793Z" fill="#05FFDB"/>
<path d="M183.758 293.297C183.516 292.59 183.109 291.951 182.57 291.432C182.372 291.248 182.156 291.082 181.928 290.936C180.104 289.72 177.379 289.448 175.646 290.936C175.471 291.087 175.31 291.253 175.164 291.432C174.647 292.068 174.116 292.69 173.571 293.297C172.676 294.317 171.761 295.302 170.804 296.259C170.531 296.525 170.259 296.797 169.979 297.063C169.819 297.223 169.658 297.377 169.497 297.531C168.882 298.118 168.253 298.683 167.618 299.242C167.282 299.543 166.947 299.836 166.604 300.123C166.094 300.549 165.584 300.975 165.067 301.387C165.018 301.422 164.969 301.457 164.921 301.499C164.907 301.506 164.9 301.52 164.886 301.527C164.879 301.527 164.872 301.527 164.865 301.541C164.846 301.548 164.829 301.56 164.816 301.576C164.662 301.68 164.557 301.75 164.48 301.813C164.508 301.799 164.536 301.778 164.564 301.764C164.438 301.862 164.306 301.96 164.18 302.058C162.957 302.959 161.706 303.825 160.428 304.635C157.264 306.66 153.941 308.424 150.492 309.91C150.261 310.001 150.024 310.098 149.786 310.189C140.755 313.889 130.958 315.332 121.243 314.395C120.251 314.318 119.258 314.213 118.266 314.08C117.12 313.913 115.981 313.71 114.849 313.48C110.54 312.62 106.324 311.347 102.258 309.679C97.1731 307.351 92.3365 304.514 87.8226 301.212C87.1238 300.716 86.4181 300.22 85.7124 299.738C86.516 297.768 87.3055 295.798 88.0741 293.814C88.4584 292.857 88.8288 291.9 89.1921 290.936C92.0499 283.51 94.733 276.014 97.3044 268.49C99.9036 260.869 102.356 253.203 104.662 245.493C104.9 244.71 105.13 243.928 105.354 243.145C106.563 239.073 107.722 234.99 108.833 230.899C108.938 230.501 109.05 230.11 109.148 229.711C109.469 228.538 109.784 227.364 110.091 226.19C110.79 223.543 109.211 220.378 106.43 219.742C105.091 219.399 103.671 219.589 102.469 220.272C101.267 220.955 100.378 222.077 99.9875 223.403C99.687 224.535 99.3866 225.66 99.0791 226.791C97.6048 232.261 96.0536 237.713 94.4256 243.145C94.188 243.928 93.9505 244.71 93.7129 245.493C90.1214 257.327 86.1782 269.042 81.8834 280.639C81.3663 282.043 80.8423 283.442 80.3112 284.837C80.0527 285.522 79.7942 286.207 79.5286 286.891C79.0186 288.239 78.4945 289.588 77.9705 290.936C77.67 291.725 77.3626 292.515 77.0552 293.297C76.8525 293.793 76.6569 294.289 76.4612 294.778C74.469 294.063 72.405 293.567 70.3054 293.297L69.97 293.255C68.3423 293.06 66.6961 293.074 65.0719 293.297C62.6411 293.581 60.3022 294.395 58.2207 295.682C56.1391 296.969 54.3657 298.697 53.0258 300.744C49.6929 305.991 49.7348 313.494 54.4093 317.951C59.2235 322.54 66.5113 322.505 72.178 319.634C75.181 318.01 77.7131 315.637 79.5286 312.746C80.2242 311.698 80.8633 310.614 81.4432 309.498C81.5899 309.595 81.7366 309.693 81.8834 309.798C82.4424 310.189 83.0013 310.587 83.5533 310.979C86.7696 313.308 90.159 315.389 93.6919 317.203C101.288 320.979 109.466 323.451 117.882 324.517C118.071 324.538 118.252 324.566 118.441 324.587C119.37 324.706 120.307 324.797 121.243 324.874C134.674 325.886 148.122 323.138 160.078 316.938C161.091 316.414 162.095 315.864 163.09 315.289C164.634 314.395 166.143 313.445 167.618 312.439C168.421 311.894 169.204 311.342 169.979 310.762C173.369 308.266 176.528 305.472 179.419 302.414C180.516 301.261 181.567 300.071 182.57 298.844C183.52 297.84 184.067 296.522 184.108 295.142C184.102 294.511 183.984 293.886 183.758 293.297V293.297ZM68.0555 309.938C68.2022 309.833 68.349 309.721 68.4887 309.609C68.4468 309.714 68.2442 309.833 68.0555 309.938H68.0555ZM70.2984 307.681C70.1377 307.863 69.991 308.045 69.8303 308.226C69.3414 308.773 68.8161 309.287 68.2581 309.763C68.1813 309.833 68.0974 309.903 68.0136 309.966C68.0127 309.966 68.0117 309.966 68.0109 309.966C68.01 309.967 68.0093 309.967 68.0086 309.968C68.0079 309.968 68.0074 309.969 68.0071 309.97C68.0067 309.971 68.0066 309.972 68.0066 309.973C67.9057 310.018 67.8076 310.069 67.7131 310.126C67.4126 310.308 67.1052 310.476 66.7908 310.629C66.1752 310.856 65.5418 311.031 64.8973 311.153C64.402 311.189 63.9049 311.194 63.409 311.167H63.395C63.0527 311.091 62.7146 310.998 62.3818 310.888C62.2141 310.804 62.0534 310.706 61.8927 310.608C61.8298 310.553 61.7739 310.497 61.739 310.462C61.6707 310.399 61.6076 310.332 61.5504 310.259C61.5504 310.258 61.5502 310.257 61.5499 310.256C61.5495 310.256 61.549 310.255 61.5484 310.254C61.5477 310.253 61.5469 310.253 61.5461 310.253C61.5452 310.252 61.5443 310.252 61.5434 310.252C61.4665 310.112 61.3826 309.973 61.3058 309.833C61.3018 309.829 61.2993 309.824 61.2988 309.819C61.2429 309.644 61.194 309.463 61.1521 309.281C61.1369 308.962 61.1393 308.643 61.1591 308.324C61.2528 307.878 61.3789 307.439 61.5364 307.011C61.6779 306.707 61.8389 306.413 62.0185 306.13C62.0325 306.102 62.1024 305.991 62.1792 305.865C62.1862 305.858 62.1862 305.858 62.1862 305.851C62.291 305.732 62.3958 305.606 62.5076 305.495C62.6963 305.285 62.8989 305.103 63.1016 304.915C63.4956 304.657 63.9039 304.421 64.3243 304.209C64.9914 303.972 65.6759 303.788 66.3716 303.657C67.3976 303.576 68.4287 303.585 69.453 303.685C70.4232 303.854 71.3804 304.089 72.3178 304.391C71.7497 305.493 71.1028 306.553 70.3823 307.563C70.3543 307.604 70.3264 307.646 70.2984 307.681V307.681ZM62.5285 305.383C62.467 305.482 62.3943 305.573 62.3119 305.655C62.3674 305.552 62.4407 305.46 62.5285 305.383V305.383Z" fill="white"/>
<path d="M162.754 221.95C162.692 224.144 162.629 226.337 162.566 228.531C162.433 233.4 162.296 238.271 162.154 243.145C162.007 248.629 161.853 254.111 161.692 259.59C161.615 262.419 161.536 265.249 161.455 268.078C161.238 275.7 161.024 283.319 160.812 290.936C160.791 291.725 160.763 292.508 160.742 293.297C160.637 297.077 160.532 300.856 160.428 304.635C160.309 308.736 160.192 312.837 160.078 316.938C159.994 320.011 159.908 323.088 159.82 326.166C159.191 348.472 158.562 370.778 157.933 393.084C157.907 394.466 157.346 395.783 156.369 396.76C155.392 397.737 154.074 398.297 152.693 398.324C151.306 398.313 149.98 397.757 148.999 396.777C148.019 395.797 147.463 394.47 147.452 393.084C147.802 380.538 148.156 367.991 148.514 355.444C148.829 344.099 149.148 332.754 149.472 321.409C149.576 317.671 149.681 313.931 149.786 310.189C149.947 304.559 150.105 298.928 150.261 293.297C150.282 292.508 150.31 291.725 150.331 290.936C150.345 290.244 150.366 289.56 150.387 288.868C150.694 277.935 151.002 267 151.309 256.062C151.435 251.759 151.556 247.453 151.673 243.145C151.812 238.234 151.952 233.325 152.092 228.419C152.155 226.26 152.211 224.109 152.273 221.95C152.3 220.569 152.861 219.251 153.838 218.275C154.815 217.298 156.132 216.737 157.514 216.711C158.9 216.722 160.227 217.277 161.207 218.257C162.188 219.238 162.743 220.564 162.754 221.95V221.95Z" fill="white"/>
<path d="M450.232 223.404C444.737 244.208 438.169 264.714 430.555 284.839C428.454 290.39 426.304 295.931 424.007 301.404L424.535 300.152C423.509 302.759 422.2 305.246 420.629 307.566C420.522 307.715 420.414 307.864 420.303 308.01C420.846 307.316 420.949 307.179 420.613 307.599C420.435 307.809 420.26 308.02 420.076 308.224C419.587 308.772 419.062 309.286 418.505 309.764C418.364 309.884 418.222 310.001 418.077 310.116L418.733 309.607C418.656 309.786 418.123 310.024 417.956 310.126C417.418 310.45 416.856 310.735 416.276 310.977L417.528 310.449C416.577 310.832 415.585 311.104 414.572 311.26L415.965 311.072C414.969 311.21 413.96 311.221 412.962 311.104L414.355 311.292C413.538 311.179 412.738 310.964 411.976 310.651L413.227 311.179C412.82 311.002 412.428 310.793 412.054 310.553C411.865 310.43 411.282 309.988 412.044 310.57C412.836 311.175 412.146 310.622 411.983 310.461C411.847 310.328 411.725 310.182 411.592 310.046C410.975 309.414 412.288 311.133 411.869 310.394C411.645 310.024 411.44 309.642 411.255 309.251L411.784 310.502C411.543 309.907 411.372 309.285 411.275 308.65L411.462 310.043C411.362 309.253 411.361 308.454 411.46 307.664L411.273 309.057C411.401 308.175 411.634 307.312 411.968 306.486L411.44 307.738C411.672 307.182 411.947 306.645 412.263 306.132C412.408 305.867 412.578 305.616 412.772 305.384C412.806 305.395 411.885 306.44 412.374 305.912C412.502 305.774 412.621 305.629 412.75 305.492C412.957 305.273 413.179 305.072 413.397 304.865C414.127 304.17 412.376 305.539 413.218 304.99C413.828 304.588 414.471 304.238 415.139 303.942L413.887 304.471C415.006 304.011 416.179 303.697 417.377 303.535L415.984 303.722C417.485 303.549 419.002 303.567 420.499 303.775L419.105 303.588C421 303.875 422.853 304.396 424.62 305.139L423.368 304.611C427.134 306.227 430.469 308.627 433.798 310.98C437.014 313.309 440.403 315.389 443.934 317.202C451.531 320.979 459.709 323.452 468.126 324.519C480.197 325.998 492.446 324.422 503.749 319.936C515.052 315.45 525.048 308.198 532.818 298.845C533.766 297.839 534.313 296.521 534.353 295.14C534.343 293.752 533.793 292.423 532.818 291.435C530.896 289.67 527.264 289.172 525.407 291.435C523.648 293.583 521.756 295.619 519.743 297.531C518.803 298.423 517.838 299.287 516.848 300.123C516.283 300.601 515.71 301.069 515.129 301.528C514.854 301.745 513.998 302.323 515.313 301.39C515.011 301.604 514.722 301.838 514.425 302.057C510.024 305.301 505.256 308.012 500.218 310.136L501.47 309.608C496.065 311.875 490.387 313.43 484.581 314.235L485.974 314.047C480.001 314.833 473.95 314.824 467.979 314.021L469.372 314.208C463.403 313.388 457.565 311.798 452.004 309.478L453.256 310.006C447.89 307.633 442.797 304.683 438.068 301.21C435.607 299.388 433.011 297.755 430.303 296.324C427.148 294.713 423.733 293.675 420.215 293.259C413.62 292.483 406.899 295.051 403.273 300.748C399.936 305.991 399.98 313.493 404.652 317.951C409.465 322.542 416.753 322.503 422.425 319.631C427.887 316.865 431.168 311.119 433.475 305.7C438.668 293.506 443.265 281.03 447.548 268.491C451.785 256.085 455.628 243.554 459.076 230.897C459.503 229.33 459.924 227.761 460.338 226.19C461.038 223.543 459.457 220.377 456.678 219.745C455.339 219.4 453.918 219.589 452.715 220.272C451.512 220.954 450.622 222.077 450.232 223.404L450.232 223.404Z" fill="white"/>
<path d="M502.52 221.95L500.633 288.87L498.757 355.442L497.696 393.085C497.708 394.471 498.264 395.796 499.244 396.776C500.224 397.757 501.55 398.312 502.936 398.324C504.318 398.297 505.635 397.737 506.612 396.76C507.59 395.783 508.15 394.466 508.177 393.085L510.063 326.164L511.94 259.592L513.001 221.95C512.989 220.564 512.433 219.238 511.453 218.258C510.472 217.278 509.146 216.722 507.76 216.71C506.379 216.737 505.061 217.298 504.084 218.274C503.107 219.251 502.546 220.568 502.52 221.95V221.95Z" fill="white"/>
<path opacity="0.2" d="M321.13 374.401H322.758V300.321H360.719V298.698H322.758V267.44H352.073C351.644 266.893 351.201 266.354 350.747 265.821H322.758V245.176C322.219 244.946 321.677 244.725 321.13 244.516V265.821H289.232V239.369C288.685 239.394 288.147 239.431 287.605 239.477V265.821H262.157V246.085C261.61 246.327 261.072 246.581 260.538 246.848V265.821H239.146V267.44H260.538V298.698H239.146V300.321H260.538V374.401H262.157V300.321C265.499 300.32 268.808 300.978 271.896 302.256C274.984 303.534 277.79 305.408 280.153 307.771C282.516 310.134 284.39 312.939 285.669 316.026C286.948 319.113 287.605 322.422 287.605 325.763V374.401H289.232V300.321H321.13V374.401ZM262.157 298.698V267.44H287.605V298.698H262.157ZM289.232 298.698V267.44H289.87C293.976 267.44 298.041 268.249 301.834 269.82C305.627 271.391 309.073 273.693 311.975 276.596C314.878 279.498 317.181 282.944 318.752 286.736C320.322 290.529 321.131 294.593 321.131 298.698H289.232Z" fill="#9BFFF1"/>
<path d="M311.193 352.189C309.144 361.325 304.237 369.572 297.183 375.731C296.666 376.178 296.149 376.611 295.611 377.038C294.304 377.156 293.007 377.277 291.719 377.401C290.65 377.499 289.595 377.603 288.547 377.701L288.358 377.722L288.225 376.577L287.694 371.938C285.634 368.575 284.357 364.792 283.958 360.869C283.559 356.946 284.048 352.984 285.389 349.276C287.233 344.302 290.573 339.907 293.857 335.548C298.392 329.526 302.801 323.574 302.962 316.232C305.193 319.087 307.048 322.217 308.482 325.544C307.129 326.181 305.914 327.076 304.904 328.178C304.618 328.492 304.331 328.932 304.527 329.31C304.695 329.631 305.114 329.708 305.477 329.75C306.351 329.841 307.231 329.931 308.104 330.022C308.803 330.099 309.502 330.169 310.201 330.246C311.046 333.02 311.619 335.87 311.912 338.755C312.383 343.243 312.14 347.777 311.193 352.189V352.189Z" fill="#05A1B8"/>
<path d="M334.391 333.879C330.268 336.876 327.857 341.186 325.985 345.936C324.066 346.55 322.339 347.653 320.975 349.136C320.688 349.45 320.402 349.89 320.598 350.268C320.765 350.589 321.185 350.666 321.548 350.708C322.421 350.798 323.302 350.889 324.175 350.98C322.303 356.597 320.584 362.409 317.272 367.153C315.069 370.284 312.198 372.888 308.866 374.774C307.957 375.292 307.02 375.756 306.057 376.164C302.508 376.437 299.026 376.728 295.611 377.038C294.304 377.156 293.007 377.278 291.719 377.401C290.65 377.499 289.595 377.603 288.547 377.701C288.54 377.317 288.54 376.933 288.547 376.549C288.768 366.313 292.534 356.472 299.203 348.703C299.517 348.339 299.838 347.983 300.167 347.627C303.545 344.019 307.518 341.018 311.912 338.755C318.837 335.155 326.597 333.472 334.391 333.879V333.879Z" fill="#05A1B8"/>
<path d="M292.928 373.817L292.124 376.192L291.719 377.401C290.65 377.499 289.595 377.604 288.547 377.701L288.358 377.722C287.198 377.841 286.045 377.96 284.893 378.079C284.592 377.729 284.292 377.373 283.998 377.01C276.705 368.18 273.204 356.822 274.261 345.419C275.317 334.017 280.845 323.495 289.637 316.155C288.715 320.983 289.791 325.607 291.558 330.197C291.37 330.274 291.188 330.351 291.013 330.434C289.661 331.071 288.446 331.966 287.436 333.068C287.149 333.382 286.863 333.823 287.059 334.2C287.226 334.521 287.646 334.598 288.009 334.64C288.882 334.731 289.763 334.822 290.636 334.912C291.335 334.989 292.034 335.059 292.732 335.136C293.061 335.171 293.389 335.206 293.718 335.241C293.766 335.346 293.808 335.443 293.857 335.548C295.849 339.865 297.994 344.204 299.203 348.703C299.506 349.831 299.744 350.977 299.915 352.133C300.453 356.04 300.105 360.018 298.895 363.772C297.685 367.526 295.646 370.959 292.928 373.817V373.817Z" fill="#05A1B8"/>
<path d="M363.261 272.494C357.246 260.763 347.926 250.892 336.966 243.639C325.97 236.396 313.353 231.985 300.239 230.799C298.52 230.643 296.797 230.551 295.069 230.525C293.028 230.494 262.322 239.349 252.036 246.58C241.756 253.722 233.299 263.181 227.348 274.193C221.408 285.265 218.486 297.705 218.876 310.264C219.385 322.898 222.907 335.227 229.149 346.224C235.305 357.186 244.047 366.478 254.613 373.292C265.33 380.129 276.096 398.257 288.75 398.897C301.498 399.541 316.038 382.441 327.665 377.249C339.293 372.014 349.345 363.823 356.82 353.494C364.084 343.371 368.783 331.637 370.515 319.299C372.313 306.666 371.475 293.638 367.16 281.564C366.053 278.461 364.75 275.432 363.261 272.494C362.017 270.045 358.373 269.143 356.091 270.614C354.915 271.338 354.064 272.486 353.714 273.822C353.364 275.157 353.542 276.575 354.211 277.783C354.941 279.221 355.62 280.682 356.248 282.168L355.72 280.916C358.095 286.627 359.711 292.626 360.524 298.757L360.337 297.364C361.203 304.016 361.187 310.754 360.291 317.402L360.478 316.009C359.572 322.656 357.798 329.156 355.2 335.342L355.728 334.09C354.391 337.246 352.834 340.304 351.066 343.241C350.17 344.724 349.22 346.173 348.215 347.587C347.774 348.207 347.319 348.817 346.86 349.425C346.262 350.218 347.676 348.389 347.057 349.167C346.952 349.3 346.847 349.433 346.742 349.565C346.424 349.961 346.103 350.354 345.776 350.744C343.598 353.342 341.22 355.768 338.666 357.998C338.029 358.553 337.382 359.096 336.725 359.626C336.397 359.89 336.073 360.166 335.732 360.412C335.745 360.403 336.836 359.574 336.19 360.055C335.987 360.206 335.786 360.36 335.582 360.51C334.227 361.514 332.835 362.467 331.408 363.369C328.121 365.439 324.674 367.241 321.098 368.757L322.349 368.229C316.181 370.825 309.698 372.599 303.067 373.505L304.46 373.317C297.832 374.213 291.115 374.225 284.484 373.353L285.877 373.54C279.85 372.731 273.956 371.137 268.342 368.8L269.594 369.328C266.343 367.956 263.208 366.323 260.22 364.445C258.741 363.513 257.301 362.524 255.899 361.477C255.699 361.328 255.501 361.177 255.302 361.026C254.662 360.544 255.761 361.383 255.77 361.388C255.398 361.122 255.04 360.836 254.698 360.533C254.02 359.981 253.354 359.418 252.698 358.841C250.074 356.53 247.623 354.03 245.366 351.359C244.801 350.692 244.248 350.014 243.707 349.326C243.473 349.028 243.046 348.425 243.99 349.695C243.866 349.528 243.737 349.364 243.611 349.198C243.31 348.799 243.013 348.396 242.72 347.991C241.694 346.571 240.719 345.117 239.794 343.628C237.705 340.256 235.881 336.727 234.34 333.073L234.868 334.325C232.347 328.326 230.622 322.023 229.739 315.576L229.927 316.969C229.13 311.027 229.119 305.006 229.893 299.06L229.706 300.453C230.499 294.696 232.049 289.068 234.313 283.715L233.785 284.967C235.21 281.616 236.891 278.38 238.813 275.287C239.775 273.739 240.794 272.229 241.871 270.757C242.116 270.422 242.364 270.09 242.614 269.759C242.84 269.461 243.463 268.716 242.4 270.031C242.505 269.902 242.605 269.769 242.707 269.639C243.298 268.891 243.904 268.154 244.524 267.428C246.87 264.682 249.411 262.109 252.128 259.729C252.815 259.128 253.512 258.539 254.221 257.962C254.543 257.701 254.867 257.442 255.193 257.185C255.323 257.083 255.455 256.982 255.585 256.879C254.189 257.989 255.197 257.181 255.514 256.944C256.974 255.85 258.473 254.811 260.011 253.827C263.429 251.641 267.026 249.746 270.762 248.163L269.51 248.691C274.932 246.415 298.955 241.042 303.324 241.628L301.931 241.441C308.353 242.338 314.63 244.071 320.601 246.598L319.349 246.07C322.375 247.355 325.316 248.832 328.153 250.492C329.571 251.323 330.961 252.199 332.323 253.12C332.967 253.557 333.605 254.002 334.236 254.458C334.552 254.686 334.865 254.916 335.177 255.149C335.35 255.278 335.522 255.409 335.695 255.539C336.421 256.083 334.695 254.751 335.456 255.352C338.003 257.354 340.423 259.513 342.7 261.817C343.819 262.955 344.899 264.13 345.94 265.341C346.474 265.963 346.997 266.593 347.51 267.233C347.764 267.551 348.631 268.7 347.569 267.292C347.828 267.636 348.091 267.978 348.347 268.325C350.555 271.313 352.516 274.476 354.211 277.783C355.464 280.226 359.093 281.137 361.381 279.662C362.557 278.939 363.408 277.79 363.759 276.455C364.109 275.12 363.93 273.701 363.261 272.494Z" fill="white"/>
<path d="M66.5532 314.367C70.7981 314.367 74.2393 310.926 74.2393 306.682C74.2393 302.438 70.7981 298.998 66.5532 298.998C62.3083 298.998 58.8672 302.438 58.8672 306.682C58.8672 310.926 62.3083 314.367 66.5532 314.367Z" fill="white"/>
<path d="M158.786 398.198C163.031 398.198 166.472 394.758 166.472 390.514C166.472 386.269 163.031 382.829 158.786 382.829C154.541 382.829 151.1 386.269 151.1 390.514C151.1 394.758 154.541 398.198 158.786 398.198Z" fill="white"/>
<path d="M508.85 398.198C513.094 398.198 516.536 394.758 516.536 390.514C516.536 386.269 513.094 382.829 508.85 382.829C504.605 382.829 501.164 386.269 501.164 390.514C501.164 394.758 504.605 398.198 508.85 398.198Z" fill="white"/>
<path d="M527.715 300.395C531.96 300.395 535.401 296.955 535.401 292.71C535.401 288.466 531.96 285.026 527.715 285.026C523.47 285.026 520.029 288.466 520.029 292.71C520.029 296.955 523.47 300.395 527.715 300.395Z" fill="white"/>
<path d="M505.356 229.138C509.601 229.138 513.042 225.698 513.042 221.454C513.042 217.21 509.601 213.769 505.356 213.769C501.111 213.769 497.67 217.21 497.67 221.454C497.67 225.698 501.111 229.138 505.356 229.138Z" fill="white"/>
<path d="M184.639 292.71C184.634 294.673 183.875 296.559 182.518 297.978C181.161 299.397 179.311 300.24 177.35 300.333C175.389 300.426 173.467 299.761 171.982 298.477C170.498 297.192 169.564 295.386 169.374 293.433C169.184 291.479 169.752 289.527 170.962 287.981C172.171 286.434 173.929 285.412 175.871 285.126C177.813 284.839 179.792 285.31 181.396 286.441C183.001 287.572 184.109 289.276 184.492 291.201C184.591 291.698 184.64 292.204 184.639 292.71V292.71Z" fill="white"/>
<path d="M338.359 251.493C342.604 251.493 346.045 248.053 346.045 243.809C346.045 239.565 342.604 236.124 338.359 236.124C334.115 236.124 330.673 239.565 330.673 243.809C330.673 248.053 334.115 251.493 338.359 251.493Z" fill="white"/>
<path d="M262.198 243.809C262.193 245.772 261.434 247.658 260.077 249.077C258.72 250.496 256.87 251.339 254.909 251.431C252.948 251.524 251.026 250.86 249.542 249.575C248.057 248.291 247.123 246.485 246.933 244.531C246.743 242.577 247.311 240.625 248.521 239.079C249.73 237.533 251.488 236.511 253.43 236.224C255.372 235.937 257.351 236.408 258.955 237.539C260.56 238.67 261.668 240.375 262.051 242.3C262.15 242.797 262.199 243.302 262.198 243.809V243.809Z" fill="white"/>
<path d="M162.978 221.454C162.973 223.417 162.214 225.303 160.857 226.722C159.501 228.141 157.65 228.984 155.689 229.076C153.728 229.169 151.806 228.505 150.322 227.22C148.837 225.936 147.903 224.13 147.713 222.176C147.523 220.222 148.092 218.271 149.301 216.724C150.511 215.178 152.268 214.156 154.21 213.869C156.153 213.582 158.131 214.053 159.736 215.184C161.34 216.315 162.449 218.02 162.831 219.945C162.93 220.442 162.979 220.947 162.978 221.454V221.454Z" fill="white"/>
<path d="M418.713 317.161C422.958 317.161 426.399 313.721 426.399 309.477C426.399 305.233 422.958 301.792 418.713 301.792C414.469 301.792 411.027 305.233 411.027 309.477C411.027 313.721 414.469 317.161 418.713 317.161Z" fill="white"/>
<path d="M297.833 247.302C304.007 247.302 309.013 242.298 309.013 236.124C309.013 229.951 304.007 224.947 297.833 224.947C291.659 224.947 286.653 229.951 286.653 236.124C286.653 242.298 291.659 247.302 297.833 247.302Z" fill="white"/>
<path d="M600.168 398.785L0.83196 399C0.722705 399 0.614517 398.978 0.513578 398.937C0.412639 398.895 0.32093 398.834 0.243675 398.756C0.16642 398.679 0.10513 398.587 0.0633203 398.486C0.0215102 398.386 0 398.277 0 398.168C0 398.059 0.0215102 397.951 0.0633203 397.85C0.10513 397.749 0.16642 397.657 0.243675 397.58C0.32093 397.503 0.412639 397.441 0.513578 397.4C0.614517 397.358 0.722705 397.336 0.83196 397.336L600.168 397.122C600.388 397.122 600.599 397.21 600.755 397.366C600.91 397.522 600.998 397.733 600.998 397.953C600.998 398.174 600.91 398.385 600.755 398.541C600.599 398.697 600.388 398.785 600.168 398.785V398.785Z" fill="#05FFDB"/>
</svg>
