<svg width="603" height="376" viewBox="0 0 603 376" fill="none" xmlns="http://www.w3.org/2000/svg">
<path d="M157.594 229.15C220.951 229.15 272.311 177.853 272.311 114.575C272.311 51.297 220.951 0 157.594 0C94.2368 0 42.8759 51.297 42.8759 114.575C42.8759 177.853 94.2368 229.15 157.594 229.15Z" fill="white"/>
<path d="M0 27.5101C0 69.1971 26.1848 102.93 58.5441 102.93Z" fill="#05A1B8"/>
<path d="M58.5441 102.93C58.5441 60.7743 87.7648 26.6627 123.876 26.6627Z" fill="#C1E8ED"/>
<path d="M21.2116 31.2891C21.2116 70.8873 37.9092 102.93 58.5441 102.93Z" fill="#C1E8ED"/>
<path d="M58.5441 102.93C58.5441 49.0644 92.3187 5.47739 134.058 5.47739Z" fill="#05A1B8"/>
<path d="M46.228 103.461C46.228 103.461 54.5305 103.206 57.0327 101.426C59.5348 99.6469 69.804 97.522 70.4247 100.376C71.0455 103.23 82.9019 114.571 73.5284 114.646C64.1549 114.722 51.7485 113.188 49.2512 111.668C46.7538 110.149 46.228 103.461 46.228 103.461Z" fill="#A8A8A8"/>
<path opacity="0.2" d="M73.6957 113.653C64.3222 113.728 51.9159 112.194 49.4185 110.675C47.5166 109.518 46.7587 105.366 46.5052 103.451C46.3296 103.458 46.228 103.461 46.228 103.461C46.228 103.461 46.7539 110.149 49.2512 111.668C51.7486 113.188 64.1549 114.722 73.5284 114.646C76.2342 114.624 77.1688 113.663 77.1175 112.239C76.7416 113.099 75.7096 113.636 73.6957 113.653Z" fill="#05FFDB"/>
<path d="M106.967 242.028C162.59 242.028 207.682 235.901 207.682 228.343C207.682 220.786 162.59 214.659 106.967 214.659C51.3439 214.659 6.25244 220.786 6.25244 228.343C6.25244 235.901 51.3439 242.028 106.967 242.028Z" fill="#05A1B8"/>
<path opacity="0.1" d="M106.967 239.832C153.667 239.832 191.524 234.689 191.524 228.343C191.524 221.998 153.667 216.854 106.967 216.854C60.2674 216.854 22.4099 221.998 22.4099 228.343C22.4099 234.689 60.2674 239.832 106.967 239.832Z" fill="black"/>
<path d="M450.582 376C534.76 376 603 366.728 603 355.29C603 343.853 534.76 334.581 450.582 334.581C366.403 334.581 298.163 343.853 298.163 355.29C298.163 366.728 366.403 376 450.582 376Z" fill="#05A1B8"/>
<path d="M167.288 359.662C217.855 359.662 258.847 354.092 258.847 347.222C258.847 340.351 217.855 334.781 167.288 334.781C116.722 334.781 75.7294 340.351 75.7294 347.222C75.7294 354.092 116.722 359.662 167.288 359.662Z" fill="#05A1B8"/>
<path d="M249.152 336.732C297.625 349.104 390.799 320.595 401.032 288.32" stroke="#05FFDB" stroke-width="2" stroke-miterlimit="10"/>
<path d="M166.75 139.319C166.75 139.319 236.765 119.954 241.074 182.352C245.382 244.75 183.446 262.501 231.918 274.873" stroke="#05FFDB" stroke-width="2" stroke-miterlimit="10"/>
<path d="M99.105 289.011C99.105 289.011 120.149 283.191 121.444 301.945C122.739 320.699 104.123 326.034 118.692 329.752" stroke="#05FFDB" stroke-width="2" stroke-miterlimit="10"/>
<path d="M419.395 302.973L415.153 330.027C415.153 330.027 394.266 341.11 408.952 341.436C423.638 341.762 492.827 341.436 492.827 341.436C492.827 341.436 506.208 341.436 484.994 329.702L480.751 301.343L419.395 302.973Z" fill="#C1E8ED"/>
<path opacity="0.1" d="M405.997 341.142C409.333 338.178 415.153 335.09 415.153 335.09L419.395 308.035L480.751 308.093L484.994 334.764C489.941 337.5 493.005 339.598 494.798 341.207C497.523 340.586 500.5 338.279 484.994 329.702L480.751 301.343L419.395 302.973L415.153 330.027C415.153 330.027 397.601 339.341 405.997 341.142Z" fill="black"/>
<path d="M578.242 114.408H321.252C315.884 114.408 311.533 118.754 311.533 124.115V297.015C311.533 302.376 315.884 306.722 321.252 306.722H578.242C583.61 306.722 587.961 302.376 587.961 297.015V124.115C587.961 118.754 583.61 114.408 578.242 114.408Z" fill="#C1E8ED"/>
<path d="M578.66 124.675H320.834V268.748H578.66V124.675Z" fill="white"/>
<path d="M449.747 121.742C450.648 121.742 451.379 121.012 451.379 120.112C451.379 119.212 450.648 118.482 449.747 118.482C448.846 118.482 448.115 119.212 448.115 120.112C448.115 121.012 448.846 121.742 449.747 121.742Z" fill="#50BDCD"/>
<path d="M587.961 280.156V297.015C587.961 298.289 587.71 299.552 587.222 300.729C586.733 301.907 586.017 302.977 585.115 303.879C584.212 304.78 583.141 305.495 581.962 305.983C580.782 306.471 579.519 306.722 578.242 306.722H321.252C319.976 306.722 318.712 306.471 317.532 305.983C316.353 305.495 315.282 304.78 314.379 303.879C313.477 302.977 312.761 301.907 312.272 300.729C311.784 299.552 311.533 298.289 311.533 297.015V280.156H587.961Z" fill="#C1E8ED"/>
<path d="M521.873 359.038V362.297H346.29V359.689L346.532 359.038L350.86 347.303H518.283L521.873 359.038Z" fill="white"/>
<path d="M589.443 355.846C589.123 357.212 587.915 358.653 585.187 360.015C575.396 364.905 555.488 358.712 555.488 358.712C555.488 358.712 540.149 356.104 540.149 349.259C540.58 348.964 541.029 348.698 541.494 348.46C545.61 346.285 559.259 340.918 583.459 348.688C585.242 349.246 586.834 350.289 588.059 351.698C589.039 352.845 589.808 354.299 589.443 355.846Z" fill="white"/>
<path opacity="0.1" d="M589.443 355.846C577.459 360.433 566.777 360.775 555.815 353.17C550.286 349.337 545.263 348.388 541.494 348.46C545.61 346.285 559.259 340.918 583.459 348.687C585.242 349.246 586.834 350.289 588.059 351.698C589.039 352.845 589.808 354.299 589.443 355.846Z" fill="white"/>
<path d="M574.417 353.17C576.76 353.17 578.66 352.587 578.66 351.866C578.66 351.146 576.76 350.563 574.417 350.563C572.074 350.563 570.174 351.146 570.174 351.866C570.174 352.587 572.074 353.17 574.417 353.17Z" fill="#05FFDB"/>
<path d="M449.747 299.714C453.172 299.714 455.948 296.941 455.948 293.52C455.948 290.1 453.172 287.327 449.747 287.327C446.322 287.327 443.546 290.1 443.546 293.52C443.546 296.941 446.322 299.714 449.747 299.714Z" fill="#50BDCD"/>
<path opacity="0.1" d="M521.873 359.037V362.297H346.29V359.689L346.532 359.037H521.873Z" fill="black"/>
<path d="M170.52 85.5279H58.4948V215.702H170.52V85.5279Z" fill="#C1FFF6"/>
<path d="M181.83 72.618H47.1846V118.878H181.83V72.618Z" fill="#C1E8ED"/>
<path d="M181.83 127.485H47.1846V173.745H181.83V127.485Z" fill="#C1E8ED"/>
<path d="M181.83 182.352H47.1846V228.612H181.83V182.352Z" fill="#C1E8ED"/>
<path opacity="0.4" d="M154.901 80.6867H146.283V89.2933H154.901V80.6867Z" fill="white"/>
<path opacity="0.8" d="M167.288 80.6867H158.671V89.2933H167.288V80.6867Z" fill="white"/>
<path d="M179.675 80.6867H171.058V89.2933H179.675V80.6867Z" fill="white"/>
<path opacity="0.4" d="M154.901 135.016H146.283V143.622H154.901V135.016Z" fill="white"/>
<path opacity="0.8" d="M167.288 135.016H158.671V143.622H167.288V135.016Z" fill="white"/>
<path d="M179.675 135.016H171.058V143.622H179.675V135.016Z" fill="white"/>
<path opacity="0.4" d="M154.901 189.345H146.283V197.951H154.901V189.345Z" fill="white"/>
<path opacity="0.8" d="M167.288 189.345H158.671V197.951H167.288V189.345Z" fill="white"/>
<path d="M179.675 189.345H171.058V197.951H179.675V189.345Z" fill="white"/>
<path d="M170.52 331.891C194.018 331.891 213.067 312.866 213.067 289.396C213.067 265.927 194.018 246.901 170.52 246.901C147.021 246.901 127.972 265.927 127.972 289.396C127.972 312.866 147.021 331.891 170.52 331.891Z" fill="#05FFDB"/>
<path d="M164.057 322.747H151.131V345.877H164.057V322.747Z" fill="#05FFDB"/>
<path d="M189.908 322.747H176.983V345.877H189.908V322.747Z" fill="#05FFDB"/>
<path d="M161.902 350.18C167.851 350.18 172.674 348.374 172.674 346.146C172.674 343.918 167.851 342.112 161.902 342.112C155.953 342.112 151.131 343.918 151.131 346.146C151.131 348.374 155.953 350.18 161.902 350.18Z" fill="#05FFDB"/>
<path d="M187.754 349.642C193.703 349.642 198.526 347.836 198.526 345.608C198.526 343.38 193.703 341.574 187.754 341.574C181.805 341.574 176.983 343.38 176.983 345.608C176.983 347.836 181.805 349.642 187.754 349.642Z" fill="#05FFDB"/>
<path d="M171.597 293.162C179.628 293.162 186.138 286.659 186.138 278.638C186.138 270.617 179.628 264.114 171.597 264.114C163.566 264.114 157.055 270.617 157.055 278.638C157.055 286.659 163.566 293.162 171.597 293.162Z" fill="white"/>
<path d="M171.597 283.479C174.274 283.479 176.444 281.312 176.444 278.638C176.444 275.964 174.274 273.797 171.597 273.797C168.92 273.797 166.75 275.964 166.75 278.638C166.75 281.312 168.92 283.479 171.597 283.479Z" fill="#05FFDB"/>
<path d="M129.247 249.877C125.811 234.51 136.793 218.983 153.776 215.195C170.758 211.408 187.311 220.795 190.746 236.162C194.182 251.529 182.927 257.196 165.944 260.984C148.962 264.771 132.682 265.244 129.247 249.877Z" fill="#9BFFF1"/>
<path d="M210.425 280.921C221.227 276.303 228.807 269.815 227.355 266.428C225.904 263.041 215.971 264.039 205.17 268.656C194.368 273.274 186.788 279.762 188.24 283.149C189.691 286.536 199.624 285.538 210.425 280.921Z" fill="#05FFDB"/>
<path d="M130.715 309.43C141.517 304.813 149.097 298.324 147.645 294.937C146.194 291.551 136.261 292.548 125.46 297.166C114.658 301.783 107.078 308.272 108.53 311.658C109.981 315.045 119.914 314.047 130.715 309.43Z" fill="#05FFDB"/>
<path d="M195.294 301.768C195.294 305.927 184.572 314.14 172.674 314.14C160.776 314.14 149.515 306.465 149.515 302.306C149.515 298.147 160.776 299.079 172.674 299.079C184.572 299.079 195.294 297.609 195.294 301.768Z" fill="white"/>
</svg>
