<svg xmlns="http://www.w3.org/2000/svg" xmlns:xlink="http://www.w3.org/1999/xlink" width="1000" zoomAndPan="magnify" viewBox="0 0 750 225" height="300" preserveAspectRatio="xMidYMid meet" version="1.0"><defs><g/></defs><path fill="rgb(1.959229%, 100%, 85.879517%)" d="M 66.101562 184.269531 L 87.710938 184.269531 L 87.710938 198.632812 L 66.101562 198.632812 Z M 66.101562 184.269531 " fill-opacity="1" fill-rule="nonzero"/><path fill="rgb(1.959229%, 100%, 85.879517%)" d="M 89.515625 174.867188 C 90.066406 174.320312 90.636719 173.800781 91.238281 173.308594 C 91.835938 172.820312 92.460938 172.359375 93.105469 171.929688 C 93.75 171.496094 94.414062 171.101562 95.097656 170.734375 C 95.78125 170.371094 96.480469 170.039062 97.199219 169.742188 C 97.914062 169.449219 98.644531 169.1875 99.386719 168.960938 C 100.128906 168.738281 100.878906 168.550781 101.640625 168.398438 C 102.402344 168.25 103.167969 168.136719 103.9375 168.058594 C 104.710938 167.984375 105.484375 167.945312 106.261719 167.945312 C 107.035156 167.945312 107.808594 167.984375 108.582031 168.058594 C 109.351562 168.136719 110.117188 168.25 110.878906 168.398438 C 111.640625 168.550781 112.390625 168.738281 113.132812 168.960938 C 113.875 169.1875 114.605469 169.449219 115.320312 169.742188 C 116.039062 170.039062 116.738281 170.371094 117.421875 170.734375 C 118.105469 171.101562 118.769531 171.496094 119.414062 171.929688 C 120.058594 172.359375 120.683594 172.820312 121.28125 173.308594 C 121.882812 173.800781 122.457031 174.320312 123.003906 174.867188 C 123.550781 175.414062 124.074219 175.988281 124.5625 176.585938 C 125.054688 177.183594 125.519531 177.804688 125.949219 178.449219 C 126.378906 179.089844 126.777344 179.753906 127.144531 180.4375 C 127.507812 181.121094 127.839844 181.820312 128.136719 182.535156 C 128.433594 183.25 128.695312 183.976562 128.917969 184.71875 C 129.144531 185.457031 129.332031 186.207031 129.484375 186.96875 C 129.636719 187.726562 129.75 188.492188 129.824219 189.261719 C 129.902344 190.03125 129.9375 190.804688 129.9375 191.578125 C 129.9375 192.351562 129.902344 193.125 129.824219 193.894531 C 129.75 194.664062 129.636719 195.429688 129.484375 196.1875 C 129.332031 196.945312 129.144531 197.695312 128.917969 198.4375 C 128.695312 199.179688 128.433594 199.90625 128.136719 200.621094 C 127.839844 201.335938 127.507812 202.035156 127.144531 202.71875 C 126.777344 203.398438 126.378906 204.0625 125.949219 204.707031 C 125.519531 205.351562 125.054688 205.972656 124.5625 206.570312 C 124.070312 207.167969 123.550781 207.742188 123.003906 208.289062 C 122.457031 208.835938 121.882812 209.355469 121.28125 209.84375 C 120.683594 210.335938 120.058594 210.796875 119.414062 211.226562 C 118.769531 211.65625 118.105469 212.054688 117.421875 212.417969 C 116.738281 212.785156 116.039062 213.113281 115.320312 213.410156 C 114.605469 213.707031 113.875 213.96875 113.132812 214.191406 C 112.390625 214.417969 111.640625 214.605469 110.878906 214.753906 C 110.117188 214.90625 109.351562 215.019531 108.582031 215.097656 C 107.808594 215.171875 107.035156 215.210938 106.261719 215.210938 C 105.484375 215.210938 104.710938 215.171875 103.9375 215.097656 C 103.167969 215.019531 102.402344 214.90625 101.640625 214.753906 C 100.878906 214.605469 100.128906 214.417969 99.386719 214.191406 C 98.644531 213.96875 97.914062 213.707031 97.199219 213.410156 C 96.480469 213.113281 95.78125 212.785156 95.097656 212.417969 C 94.414062 212.054688 93.75 211.65625 93.105469 211.226562 C 92.460938 210.796875 91.835938 210.335938 91.238281 209.84375 C 90.636719 209.355469 90.066406 208.835938 89.515625 208.289062 C 88.96875 207.742188 88.449219 207.167969 87.957031 206.570312 C 87.464844 205.972656 87.003906 205.351562 86.570312 204.707031 C 86.140625 204.0625 85.742188 203.398438 85.375 202.71875 C 85.011719 202.035156 84.679688 201.335938 84.382812 200.621094 C 84.085938 199.90625 83.824219 199.179688 83.601562 198.4375 C 83.375 197.695312 83.1875 196.945312 83.035156 196.1875 C 82.882812 195.429688 82.769531 194.664062 82.695312 193.894531 C 82.617188 193.125 82.582031 192.351562 82.582031 191.578125 C 82.582031 190.804688 82.617188 190.03125 82.695312 189.261719 C 82.769531 188.492188 82.882812 187.726562 83.035156 186.96875 C 83.1875 186.207031 83.375 185.457031 83.601562 184.71875 C 83.824219 183.976562 84.085938 183.25 84.382812 182.535156 C 84.679688 181.820312 85.011719 181.121094 85.375 180.4375 C 85.742188 179.753906 86.140625 179.089844 86.570312 178.449219 C 87.003906 177.804688 87.464844 177.183594 87.957031 176.585938 C 88.449219 175.988281 88.96875 175.414062 89.515625 174.867188 Z M 89.515625 174.867188 " fill-opacity="1" fill-rule="nonzero"/><path fill="rgb(1.959229%, 100%, 85.879517%)" d="M 87.21875 183.335938 L 71.9375 168.085938 L 82.117188 157.925781 L 97.398438 173.175781 Z M 87.21875 183.335938 " fill-opacity="1" fill-rule="nonzero"/><path fill="rgb(1.959229%, 63.139343%, 72.158813%)" d="M 31.621094 176.425781 L 90.402344 117.761719 L 100.582031 127.921875 L 41.800781 186.585938 Z M 31.621094 176.425781 " fill-opacity="1" fill-rule="nonzero"/><path fill="rgb(1.959229%, 63.139343%, 72.158813%)" d="M 49.296875 191.566406 C 49.296875 192.339844 49.261719 193.109375 49.183594 193.882812 C 49.109375 194.652344 48.996094 195.417969 48.84375 196.175781 C 48.691406 196.933594 48.503906 197.683594 48.277344 198.425781 C 48.054688 199.164062 47.792969 199.894531 47.496094 200.609375 C 47.199219 201.324219 46.867188 202.023438 46.503906 202.703125 C 46.136719 203.386719 45.738281 204.050781 45.308594 204.695312 C 44.878906 205.335938 44.414062 205.957031 43.921875 206.558594 C 43.433594 207.15625 42.910156 207.726562 42.363281 208.277344 C 41.816406 208.824219 41.242188 209.34375 40.640625 209.832031 C 40.042969 210.324219 39.417969 210.785156 38.773438 211.214844 C 38.128906 211.644531 37.464844 212.042969 36.78125 212.40625 C 36.097656 212.773438 35.398438 213.101562 34.679688 213.398438 C 33.964844 213.695312 33.234375 213.953125 32.492188 214.179688 C 31.75 214.402344 31 214.59375 30.238281 214.742188 C 29.476562 214.894531 28.710938 215.007812 27.941406 215.082031 C 27.167969 215.160156 26.394531 215.195312 25.621094 215.195312 C 24.84375 215.195312 24.070312 215.160156 23.296875 215.082031 C 22.527344 215.007812 21.761719 214.894531 21 214.742188 C 20.238281 214.59375 19.488281 214.402344 18.746094 214.179688 C 18.003906 213.953125 17.273438 213.695312 16.558594 213.398438 C 15.839844 213.101562 15.140625 212.773438 14.457031 212.40625 C 13.773438 212.042969 13.109375 211.644531 12.464844 211.214844 C 11.820312 210.785156 11.195312 210.324219 10.597656 209.832031 C 9.996094 209.34375 9.425781 208.824219 8.875 208.277344 C 8.328125 207.726562 7.808594 207.15625 7.316406 206.558594 C 6.824219 205.957031 6.363281 205.335938 5.929688 204.695312 C 5.5 204.050781 5.101562 203.386719 4.734375 202.703125 C 4.371094 202.023438 4.039062 201.324219 3.742188 200.609375 C 3.445312 199.894531 3.183594 199.164062 2.960938 198.425781 C 2.734375 197.683594 2.546875 196.933594 2.394531 196.175781 C 2.242188 195.417969 2.128906 194.652344 2.054688 193.882812 C 1.976562 193.109375 1.941406 192.339844 1.941406 191.566406 C 1.941406 190.789062 1.976562 190.019531 2.054688 189.25 C 2.128906 188.476562 2.242188 187.714844 2.394531 186.953125 C 2.546875 186.195312 2.734375 185.445312 2.960938 184.703125 C 3.183594 183.964844 3.445312 183.234375 3.742188 182.519531 C 4.039062 181.804688 4.371094 181.105469 4.734375 180.425781 C 5.101562 179.742188 5.5 179.078125 5.929688 178.433594 C 6.363281 177.792969 6.824219 177.171875 7.316406 176.574219 C 7.808594 175.972656 8.328125 175.402344 8.875 174.855469 C 9.425781 174.308594 9.996094 173.789062 10.597656 173.296875 C 11.195312 172.804688 11.820312 172.34375 12.464844 171.914062 C 13.109375 171.484375 13.773438 171.085938 14.457031 170.722656 C 15.140625 170.359375 15.839844 170.027344 16.558594 169.730469 C 17.273438 169.433594 18.003906 169.175781 18.746094 168.949219 C 19.488281 168.726562 20.238281 168.539062 21 168.386719 C 21.761719 168.234375 22.527344 168.121094 23.296875 168.046875 C 24.070312 167.96875 24.84375 167.933594 25.621094 167.933594 C 26.394531 167.933594 27.167969 167.96875 27.941406 168.046875 C 28.710938 168.121094 29.476562 168.234375 30.238281 168.386719 C 31 168.539062 31.75 168.726562 32.492188 168.949219 C 33.234375 169.175781 33.964844 169.433594 34.679688 169.730469 C 35.398438 170.027344 36.097656 170.359375 36.78125 170.722656 C 37.464844 171.085938 38.128906 171.484375 38.773438 171.914062 C 39.417969 172.34375 40.042969 172.804688 40.640625 173.296875 C 41.242188 173.789062 41.816406 174.308594 42.363281 174.855469 C 42.910156 175.402344 43.433594 175.972656 43.921875 176.574219 C 44.414062 177.171875 44.878906 177.792969 45.308594 178.433594 C 45.738281 179.078125 46.136719 179.742188 46.503906 180.425781 C 46.867188 181.105469 47.199219 181.804688 47.496094 182.519531 C 47.792969 183.234375 48.054688 183.964844 48.277344 184.703125 C 48.503906 185.445312 48.691406 186.195312 48.84375 186.953125 C 48.996094 187.714844 49.109375 188.476562 49.183594 189.25 C 49.261719 190.019531 49.296875 190.789062 49.296875 191.566406 Z M 49.296875 191.566406 " fill-opacity="1" fill-rule="nonzero"/><path fill="rgb(1.959229%, 63.139343%, 72.158813%)" d="M 89.515625 95.800781 C 90.066406 95.253906 90.636719 94.734375 91.238281 94.246094 C 91.835938 93.753906 92.460938 93.292969 93.105469 92.863281 C 93.75 92.433594 94.414062 92.035156 95.097656 91.671875 C 95.78125 91.304688 96.480469 90.976562 97.199219 90.679688 C 97.914062 90.382812 98.644531 90.121094 99.386719 89.898438 C 100.128906 89.671875 100.878906 89.484375 101.640625 89.335938 C 102.402344 89.183594 103.167969 89.070312 103.9375 88.992188 C 104.710938 88.917969 105.484375 88.878906 106.261719 88.878906 C 107.035156 88.878906 107.808594 88.917969 108.582031 88.992188 C 109.351562 89.070312 110.117188 89.183594 110.878906 89.335938 C 111.640625 89.484375 112.390625 89.671875 113.132812 89.898438 C 113.875 90.121094 114.605469 90.382812 115.320312 90.679688 C 116.039062 90.976562 116.738281 91.304688 117.421875 91.671875 C 118.105469 92.035156 118.769531 92.433594 119.414062 92.863281 C 120.058594 93.292969 120.683594 93.753906 121.28125 94.246094 C 121.882812 94.734375 122.457031 95.253906 123.003906 95.800781 C 123.550781 96.347656 124.074219 96.921875 124.5625 97.519531 C 125.054688 98.117188 125.519531 98.738281 125.949219 99.382812 C 126.378906 100.027344 126.777344 100.691406 127.144531 101.371094 C 127.507812 102.054688 127.839844 102.753906 128.136719 103.46875 C 128.433594 104.183594 128.695312 104.910156 128.917969 105.652344 C 129.144531 106.394531 129.332031 107.144531 129.484375 107.902344 C 129.636719 108.660156 129.75 109.425781 129.824219 110.195312 C 129.902344 110.964844 129.9375 111.738281 129.9375 112.511719 C 129.9375 113.285156 129.902344 114.058594 129.824219 114.828125 C 129.75 115.597656 129.636719 116.363281 129.484375 117.125 C 129.332031 117.882812 129.144531 118.632812 128.917969 119.371094 C 128.695312 120.113281 128.433594 120.839844 128.136719 121.554688 C 127.839844 122.269531 127.507812 122.96875 127.144531 123.652344 C 126.777344 124.335938 126.378906 125 125.949219 125.640625 C 125.519531 126.285156 125.054688 126.90625 124.5625 127.503906 C 124.074219 128.101562 123.550781 128.675781 123.003906 129.222656 C 122.457031 129.769531 121.882812 130.289062 121.28125 130.78125 C 120.683594 131.273438 120.058594 131.730469 119.414062 132.164062 C 118.769531 132.59375 118.105469 132.988281 117.421875 133.355469 C 116.738281 133.71875 116.039062 134.050781 115.320312 134.347656 C 114.605469 134.640625 113.875 134.902344 113.132812 135.128906 C 112.390625 135.351562 111.640625 135.539062 110.878906 135.691406 C 110.117188 135.84375 109.351562 135.957031 108.582031 136.03125 C 107.808594 136.105469 107.035156 136.144531 106.261719 136.144531 C 105.484375 136.144531 104.710938 136.105469 103.9375 136.03125 C 103.167969 135.957031 102.402344 135.84375 101.640625 135.691406 C 100.878906 135.539062 100.128906 135.351562 99.386719 135.128906 C 98.644531 134.902344 97.914062 134.640625 97.199219 134.347656 C 96.480469 134.050781 95.78125 133.71875 95.097656 133.355469 C 94.414062 132.988281 93.75 132.59375 93.105469 132.164062 C 92.460938 131.730469 91.835938 131.273438 91.238281 130.78125 C 90.636719 130.289062 90.066406 129.769531 89.515625 129.222656 C 88.96875 128.675781 88.449219 128.101562 87.957031 127.503906 C 87.464844 126.90625 87.003906 126.285156 86.570312 125.640625 C 86.140625 125 85.742188 124.335938 85.375 123.652344 C 85.011719 122.96875 84.679688 122.269531 84.382812 121.554688 C 84.085938 120.839844 83.824219 120.113281 83.601562 119.371094 C 83.375 118.632812 83.1875 117.882812 83.035156 117.125 C 82.882812 116.363281 82.769531 115.597656 82.695312 114.828125 C 82.617188 114.058594 82.582031 113.285156 82.582031 112.511719 C 82.582031 111.738281 82.617188 110.964844 82.695312 110.195312 C 82.769531 109.425781 82.882812 108.660156 83.035156 107.902344 C 83.1875 107.144531 83.375 106.394531 83.601562 105.652344 C 83.824219 104.910156 84.085938 104.183594 84.382812 103.46875 C 84.679688 102.753906 85.011719 102.054688 85.375 101.371094 C 85.742188 100.691406 86.140625 100.027344 86.570312 99.382812 C 87.003906 98.738281 87.464844 98.117188 87.957031 97.519531 C 88.449219 96.921875 88.96875 96.347656 89.515625 95.800781 Z M 89.515625 95.800781 " fill-opacity="1" fill-rule="nonzero"/><path fill="rgb(1.959229%, 63.139343%, 72.158813%)" d="M 87.4375 104.488281 L 72.15625 89.238281 L 82.335938 79.078125 L 97.617188 94.328125 Z M 87.4375 104.488281 " fill-opacity="1" fill-rule="nonzero"/><path fill="rgb(1.959229%, 63.139343%, 72.158813%)" d="M 42.363281 50.132812 C 41.816406 50.679688 41.242188 51.199219 40.640625 51.691406 C 40.042969 52.179688 39.417969 52.640625 38.773438 53.070312 C 38.128906 53.503906 37.464844 53.898438 36.78125 54.265625 C 36.097656 54.628906 35.398438 54.960938 34.679688 55.257812 C 33.964844 55.550781 33.234375 55.8125 32.492188 56.039062 C 31.75 56.261719 31 56.449219 30.238281 56.601562 C 29.476562 56.75 28.710938 56.863281 27.941406 56.941406 C 27.167969 57.015625 26.394531 57.054688 25.621094 57.054688 C 24.84375 57.054688 24.070312 57.015625 23.296875 56.941406 C 22.527344 56.863281 21.761719 56.75 21 56.601562 C 20.238281 56.449219 19.488281 56.261719 18.746094 56.039062 C 18.003906 55.8125 17.273438 55.550781 16.558594 55.257812 C 15.839844 54.960938 15.140625 54.628906 14.457031 54.265625 C 13.773438 53.898438 13.109375 53.503906 12.464844 53.070312 C 11.820312 52.640625 11.195312 52.179688 10.597656 51.691406 C 9.996094 51.199219 9.425781 50.679688 8.875 50.132812 C 8.328125 49.585938 7.808594 49.011719 7.316406 48.414062 C 6.824219 47.816406 6.363281 47.195312 5.929688 46.550781 C 5.5 45.910156 5.101562 45.246094 4.734375 44.5625 C 4.371094 43.878906 4.039062 43.179688 3.742188 42.464844 C 3.445312 41.75 3.183594 41.023438 2.960938 40.28125 C 2.734375 39.542969 2.546875 38.792969 2.394531 38.03125 C 2.242188 37.273438 2.128906 36.507812 2.054688 35.738281 C 1.976562 34.96875 1.941406 34.195312 1.941406 33.421875 C 1.941406 32.648438 1.976562 31.875 2.054688 31.105469 C 2.128906 30.335938 2.242188 29.570312 2.394531 28.8125 C 2.546875 28.054688 2.734375 27.304688 2.960938 26.5625 C 3.183594 25.820312 3.445312 25.09375 3.742188 24.378906 C 4.039062 23.664062 4.371094 22.964844 4.734375 22.28125 C 5.101562 21.601562 5.5 20.9375 5.929688 20.292969 C 6.363281 19.648438 6.824219 19.027344 7.316406 18.429688 C 7.808594 17.832031 8.328125 17.257812 8.875 16.710938 C 9.425781 16.164062 9.996094 15.644531 10.597656 15.15625 C 11.195312 14.664062 11.820312 14.203125 12.464844 13.773438 C 13.109375 13.34375 13.773438 12.945312 14.457031 12.582031 C 15.140625 12.214844 15.839844 11.886719 16.558594 11.589844 C 17.273438 11.292969 18.003906 11.03125 18.746094 10.808594 C 19.488281 10.582031 20.238281 10.394531 21 10.246094 C 21.761719 10.09375 22.527344 9.980469 23.296875 9.902344 C 24.070312 9.828125 24.84375 9.789062 25.621094 9.789062 C 26.394531 9.789062 27.167969 9.828125 27.941406 9.902344 C 28.710938 9.980469 29.476562 10.09375 30.238281 10.246094 C 31 10.394531 31.75 10.582031 32.492188 10.808594 C 33.234375 11.03125 33.964844 11.292969 34.679688 11.589844 C 35.398438 11.886719 36.097656 12.214844 36.78125 12.582031 C 37.464844 12.945312 38.128906 13.34375 38.773438 13.773438 C 39.417969 14.203125 40.042969 14.664062 40.640625 15.15625 C 41.242188 15.644531 41.816406 16.164062 42.363281 16.710938 C 42.910156 17.257812 43.433594 17.832031 43.921875 18.429688 C 44.414062 19.027344 44.878906 19.648438 45.308594 20.292969 C 45.738281 20.9375 46.136719 21.601562 46.503906 22.28125 C 46.867188 22.964844 47.199219 23.664062 47.496094 24.378906 C 47.792969 25.09375 48.054688 25.820312 48.277344 26.5625 C 48.503906 27.304688 48.691406 28.054688 48.84375 28.8125 C 48.996094 29.570312 49.109375 30.335938 49.183594 31.105469 C 49.261719 31.875 49.296875 32.648438 49.296875 33.421875 C 49.296875 34.195312 49.261719 34.96875 49.183594 35.738281 C 49.109375 36.507812 48.996094 37.273438 48.84375 38.03125 C 48.691406 38.792969 48.503906 39.542969 48.277344 40.28125 C 48.054688 41.023438 47.792969 41.75 47.496094 42.464844 C 47.199219 43.179688 46.867188 43.878906 46.503906 44.5625 C 46.136719 45.246094 45.738281 45.910156 45.308594 46.550781 C 44.878906 47.195312 44.414062 47.816406 43.921875 48.414062 C 43.433594 49.011719 42.910156 49.585938 42.363281 50.132812 Z M 42.363281 50.132812 " fill-opacity="1" fill-rule="nonzero"/><path fill="rgb(1.959229%, 63.139343%, 72.158813%)" d="M 44.703125 41.585938 L 59.980469 56.835938 L 49.804688 66.992188 L 34.523438 51.746094 Z M 44.703125 41.585938 " fill-opacity="1" fill-rule="nonzero"/><path fill="rgb(1.959229%, 100%, 85.879517%)" d="M 31.621094 97.363281 L 90.402344 38.699219 L 100.582031 48.855469 L 41.800781 107.519531 Z M 31.621094 97.363281 " fill-opacity="1" fill-rule="nonzero"/><path fill="rgb(1.959229%, 100%, 85.879517%)" d="M 66.101562 26.355469 L 87.710938 26.355469 L 87.710938 40.722656 L 66.101562 40.722656 Z M 66.101562 26.355469 " fill-opacity="1" fill-rule="nonzero"/><path fill="rgb(1.959229%, 100%, 85.879517%)" d="M 44.277344 105.421875 L 65.886719 105.421875 L 65.886719 119.789062 L 44.277344 119.789062 Z M 44.277344 105.421875 " fill-opacity="1" fill-rule="nonzero"/><path fill="rgb(1.959229%, 100%, 85.879517%)" d="M 130.046875 33.433594 C 130.046875 34.210938 130.011719 34.980469 129.933594 35.75 C 129.859375 36.523438 129.746094 37.285156 129.59375 38.046875 C 129.441406 38.804688 129.253906 39.554688 129.027344 40.296875 C 128.804688 41.035156 128.542969 41.765625 128.246094 42.480469 C 127.949219 43.195312 127.617188 43.894531 127.253906 44.574219 C 126.886719 45.257812 126.488281 45.921875 126.058594 46.566406 C 125.625 47.207031 125.164062 47.828125 124.671875 48.425781 C 124.179688 49.027344 123.660156 49.597656 123.113281 50.144531 C 122.5625 50.691406 121.992188 51.210938 121.390625 51.703125 C 120.792969 52.195312 120.167969 52.65625 119.523438 53.085938 C 118.878906 53.515625 118.214844 53.914062 117.53125 54.277344 C 116.847656 54.640625 116.148438 54.972656 115.429688 55.269531 C 114.714844 55.566406 113.984375 55.824219 113.242188 56.050781 C 112.5 56.273438 111.75 56.460938 110.988281 56.613281 C 110.226562 56.765625 109.460938 56.878906 108.691406 56.953125 C 107.917969 57.03125 107.144531 57.066406 106.367188 57.066406 C 105.59375 57.066406 104.820312 57.03125 104.046875 56.953125 C 103.277344 56.878906 102.511719 56.765625 101.75 56.613281 C 100.988281 56.460938 100.238281 56.273438 99.496094 56.050781 C 98.753906 55.824219 98.023438 55.566406 97.308594 55.269531 C 96.589844 54.972656 95.890625 54.640625 95.207031 54.277344 C 94.523438 53.914062 93.859375 53.515625 93.214844 53.085938 C 92.570312 52.65625 91.945312 52.195312 91.347656 51.703125 C 90.746094 51.210938 90.171875 50.691406 89.625 50.144531 C 89.078125 49.597656 88.558594 49.027344 88.066406 48.425781 C 87.574219 47.828125 87.109375 47.207031 86.679688 46.566406 C 86.25 45.921875 85.851562 45.257812 85.484375 44.574219 C 85.121094 43.894531 84.789062 43.195312 84.492188 42.480469 C 84.195312 41.765625 83.933594 41.035156 83.710938 40.296875 C 83.484375 39.554688 83.296875 38.804688 83.144531 38.046875 C 82.992188 37.285156 82.878906 36.523438 82.804688 35.75 C 82.726562 34.980469 82.691406 34.210938 82.691406 33.433594 C 82.691406 32.660156 82.726562 31.890625 82.804688 31.117188 C 82.878906 30.347656 82.992188 29.582031 83.144531 28.824219 C 83.296875 28.066406 83.484375 27.316406 83.710938 26.574219 C 83.933594 25.835938 84.195312 25.105469 84.492188 24.390625 C 84.789062 23.675781 85.121094 22.976562 85.484375 22.296875 C 85.851562 21.613281 86.25 20.949219 86.679688 20.304688 C 87.109375 19.664062 87.574219 19.042969 88.066406 18.441406 C 88.558594 17.84375 89.078125 17.273438 89.625 16.722656 C 90.171875 16.175781 90.746094 15.65625 91.347656 15.167969 C 91.945312 14.675781 92.570312 14.214844 93.214844 13.785156 C 93.859375 13.355469 94.523438 12.957031 95.207031 12.59375 C 95.890625 12.226562 96.589844 11.898438 97.308594 11.601562 C 98.023438 11.304688 98.753906 11.046875 99.496094 10.820312 C 100.238281 10.597656 100.988281 10.40625 101.75 10.257812 C 102.511719 10.105469 103.277344 9.992188 104.046875 9.917969 C 104.820312 9.839844 105.59375 9.804688 106.367188 9.804688 C 107.144531 9.804688 107.917969 9.839844 108.691406 9.917969 C 109.460938 9.992188 110.226562 10.105469 110.988281 10.257812 C 111.75 10.40625 112.5 10.597656 113.242188 10.820312 C 113.984375 11.046875 114.714844 11.304688 115.429688 11.601562 C 116.148438 11.898438 116.847656 12.226562 117.53125 12.59375 C 118.214844 12.957031 118.878906 13.355469 119.523438 13.785156 C 120.167969 14.214844 120.792969 14.675781 121.390625 15.167969 C 121.992188 15.65625 122.5625 16.175781 123.113281 16.722656 C 123.660156 17.273438 124.179688 17.84375 124.671875 18.441406 C 125.164062 19.042969 125.625 19.664062 126.058594 20.304688 C 126.488281 20.949219 126.886719 21.613281 127.253906 22.296875 C 127.617188 22.976562 127.949219 23.675781 128.246094 24.390625 C 128.542969 25.105469 128.804688 25.835938 129.027344 26.574219 C 129.253906 27.316406 129.441406 28.066406 129.59375 28.824219 C 129.746094 29.582031 129.859375 30.347656 129.933594 31.117188 C 130.011719 31.890625 130.046875 32.660156 130.046875 33.433594 Z M 130.046875 33.433594 " fill-opacity="1" fill-rule="nonzero"/><path fill="rgb(1.959229%, 100%, 85.879517%)" d="M 42.363281 129.414062 C 41.816406 129.964844 41.242188 130.480469 40.640625 130.972656 C 40.042969 131.464844 39.417969 131.925781 38.773438 132.355469 C 38.128906 132.785156 37.464844 133.183594 36.78125 133.546875 C 36.097656 133.910156 35.398438 134.242188 34.679688 134.539062 C 33.964844 134.835938 33.234375 135.09375 32.492188 135.320312 C 31.75 135.542969 31 135.734375 30.238281 135.882812 C 29.476562 136.035156 28.710938 136.148438 27.941406 136.222656 C 27.167969 136.300781 26.394531 136.335938 25.621094 136.335938 C 24.84375 136.335938 24.070312 136.300781 23.296875 136.222656 C 22.527344 136.148438 21.761719 136.035156 21 135.882812 C 20.238281 135.734375 19.488281 135.542969 18.746094 135.320312 C 18.003906 135.09375 17.273438 134.835938 16.558594 134.539062 C 15.839844 134.242188 15.140625 133.910156 14.457031 133.546875 C 13.773438 133.183594 13.109375 132.785156 12.464844 132.355469 C 11.820312 131.925781 11.195312 131.464844 10.597656 130.972656 C 9.996094 130.480469 9.425781 129.964844 8.875 129.414062 C 8.328125 128.867188 7.808594 128.296875 7.316406 127.699219 C 6.824219 127.097656 6.363281 126.476562 5.929688 125.835938 C 5.5 125.191406 5.101562 124.527344 4.734375 123.84375 C 4.371094 123.164062 4.039062 122.464844 3.742188 121.75 C 3.445312 121.035156 3.183594 120.304688 2.960938 119.566406 C 2.734375 118.824219 2.546875 118.074219 2.394531 117.316406 C 2.242188 116.554688 2.128906 115.792969 2.054688 115.023438 C 1.976562 114.25 1.941406 113.480469 1.941406 112.707031 C 1.941406 111.929688 1.976562 111.160156 2.054688 110.390625 C 2.128906 109.617188 2.242188 108.855469 2.394531 108.09375 C 2.546875 107.335938 2.734375 106.585938 2.960938 105.84375 C 3.183594 105.105469 3.445312 104.375 3.742188 103.660156 C 4.039062 102.945312 4.371094 102.246094 4.734375 101.566406 C 5.101562 100.882812 5.5 100.21875 5.929688 99.574219 C 6.363281 98.933594 6.824219 98.3125 7.316406 97.714844 C 7.808594 97.113281 8.328125 96.542969 8.875 95.996094 C 9.425781 95.449219 9.996094 94.929688 10.597656 94.4375 C 11.195312 93.945312 11.820312 93.484375 12.464844 93.054688 C 13.109375 92.625 13.773438 92.226562 14.457031 91.863281 C 15.140625 91.5 15.839844 91.167969 16.558594 90.871094 C 17.273438 90.574219 18.003906 90.316406 18.746094 90.089844 C 19.488281 89.867188 20.238281 89.679688 21 89.527344 C 21.761719 89.375 22.527344 89.261719 23.296875 89.1875 C 24.070312 89.109375 24.84375 89.074219 25.621094 89.074219 C 26.394531 89.074219 27.167969 89.109375 27.941406 89.1875 C 28.710938 89.261719 29.476562 89.375 30.238281 89.527344 C 31 89.679688 31.75 89.867188 32.492188 90.089844 C 33.234375 90.316406 33.964844 90.574219 34.679688 90.871094 C 35.398438 91.167969 36.097656 91.5 36.78125 91.863281 C 37.464844 92.226562 38.128906 92.625 38.773438 93.054688 C 39.417969 93.484375 40.042969 93.945312 40.640625 94.4375 C 41.242188 94.929688 41.816406 95.449219 42.363281 95.996094 C 42.910156 96.542969 43.433594 97.113281 43.921875 97.714844 C 44.414062 98.3125 44.878906 98.933594 45.308594 99.574219 C 45.738281 100.21875 46.136719 100.882812 46.503906 101.566406 C 46.867188 102.246094 47.199219 102.945312 47.496094 103.660156 C 47.792969 104.375 48.054688 105.105469 48.277344 105.84375 C 48.503906 106.585938 48.691406 107.335938 48.84375 108.09375 C 48.996094 108.855469 49.109375 109.617188 49.183594 110.390625 C 49.261719 111.160156 49.296875 111.929688 49.296875 112.707031 C 49.296875 113.480469 49.261719 114.25 49.183594 115.023438 C 49.109375 115.792969 48.996094 116.554688 48.84375 117.316406 C 48.691406 118.074219 48.503906 118.824219 48.277344 119.566406 C 48.054688 120.304688 47.792969 121.035156 47.496094 121.75 C 47.199219 122.464844 46.867188 123.164062 46.503906 123.84375 C 46.136719 124.527344 45.738281 125.191406 45.308594 125.835938 C 44.878906 126.476562 44.414062 127.097656 43.921875 127.699219 C 43.433594 128.296875 42.910156 128.867188 42.363281 129.414062 Z M 42.363281 129.414062 " fill-opacity="1" fill-rule="nonzero"/><path fill="rgb(1.959229%, 100%, 85.879517%)" d="M 44.921875 120.867188 L 60.199219 136.117188 L 50.019531 146.277344 L 34.742188 131.027344 Z M 44.921875 120.867188 " fill-opacity="1" fill-rule="nonzero"/><g fill="rgb(100%, 100%, 100%)" fill-opacity="1"><g transform="translate(139.262616, 132.192879)"><g><path d="M 22.796875 -59.394531 C 26.996094 -64.042969 32.398438 -66.894531 39.894531 -66.894531 C 49.945312 -66.894531 54.292969 -61.945312 54.292969 -53.695312 L 54.292969 -25.496094 C 54.292969 -15.597656 49.34375 -9.597656 38.546875 -9.597656 C 28.796875 -9.597656 22.796875 -14.398438 22.796875 -22.496094 Z M 11.097656 -22.496094 C 11.097656 -9.300781 21.148438 1.199219 38.546875 1.199219 C 56.84375 1.199219 65.992188 -10.5 65.992188 -25.496094 L 65.992188 -53.695312 C 65.992188 -66.894531 59.84375 -77.09375 42.746094 -77.09375 C 34.648438 -77.09375 28.347656 -74.84375 22.796875 -70.941406 L 22.796875 -103.039062 C 22.796875 -106.039062 20.699219 -108.738281 16.949219 -108.738281 C 13.199219 -108.738281 11.097656 -106.039062 11.097656 -103.039062 Z M 11.097656 -22.496094 "/></g></g></g><g fill="rgb(100%, 100%, 100%)" fill-opacity="1"><g transform="translate(212.001272, 132.192879)"><g><path d="M 25.496094 -100.191406 C 25.496094 -104.238281 22.347656 -107.390625 18.296875 -107.390625 C 14.25 -107.390625 11.097656 -104.238281 11.097656 -100.191406 C 11.097656 -96.289062 14.25 -92.992188 18.296875 -92.992188 C 22.347656 -92.992188 25.496094 -96.289062 25.496094 -100.191406 Z M 24.148438 -4.648438 L 24.148438 -70.792969 C 24.148438 -73.941406 21.597656 -76.640625 18.296875 -76.640625 C 15 -76.640625 12.449219 -73.941406 12.449219 -70.792969 L 12.449219 -4.648438 C 12.449219 -1.351562 15 1.199219 18.296875 1.199219 C 21.597656 1.199219 24.148438 -1.351562 24.148438 -4.648438 Z M 24.148438 -4.648438 "/></g></g></g><g fill="rgb(100%, 100%, 100%)" fill-opacity="1"><g transform="translate(248.745537, 132.192879)"><g><path d="M 34.796875 1.199219 C 53.09375 1.199219 62.84375 -10.5 62.84375 -25.496094 L 62.84375 -50.546875 C 62.84375 -65.542969 53.09375 -77.242188 34.796875 -77.242188 C 16.5 -77.242188 6.75 -65.542969 6.75 -50.546875 L 6.75 -25.496094 C 6.75 -10.5 16.5 1.199219 34.796875 1.199219 Z M 34.796875 -9.597656 C 23.996094 -9.597656 18.449219 -15.597656 18.449219 -25.496094 L 18.449219 -50.695312 C 18.449219 -60.445312 23.996094 -66.441406 34.796875 -66.441406 C 45.59375 -66.441406 51.144531 -60.445312 51.144531 -50.695312 L 51.144531 -25.496094 C 51.144531 -15.597656 45.59375 -9.597656 34.796875 -9.597656 Z M 34.796875 -9.597656 "/></g></g></g><g fill="rgb(100%, 100%, 100%)" fill-opacity="1"><g transform="translate(318.334687, 132.192879)"><g><path d="M 11.097656 -4.949219 C 11.097656 -1.800781 13.199219 0.75 16.949219 0.75 C 20.699219 0.75 22.796875 -1.800781 22.796875 -4.949219 L 22.796875 -61.34375 L 38.394531 -61.34375 C 41.394531 -61.34375 43.796875 -63.742188 43.796875 -66.894531 C 43.796875 -70.042969 41.394531 -72.441406 38.394531 -72.441406 L 22.796875 -72.441406 L 22.796875 -81.742188 C 22.796875 -90.289062 27.296875 -97.492188 36.144531 -97.492188 C 40.347656 -97.492188 42.746094 -96.441406 45.296875 -96.441406 C 48.296875 -96.441406 50.996094 -98.539062 50.996094 -101.988281 C 50.996094 -108.890625 39.746094 -108.890625 37.347656 -108.738281 C 22.347656 -108.140625 11.097656 -99.589844 11.097656 -80.542969 Z M 11.097656 -4.949219 "/></g></g></g><g fill="rgb(100%, 100%, 100%)" fill-opacity="1"><g transform="translate(367.676974, 132.192879)"><g><path d="M 25.496094 -100.191406 C 25.496094 -104.238281 22.347656 -107.390625 18.296875 -107.390625 C 14.25 -107.390625 11.097656 -104.238281 11.097656 -100.191406 C 11.097656 -96.289062 14.25 -92.992188 18.296875 -92.992188 C 22.347656 -92.992188 25.496094 -96.289062 25.496094 -100.191406 Z M 24.148438 -4.648438 L 24.148438 -70.792969 C 24.148438 -73.941406 21.597656 -76.640625 18.296875 -76.640625 C 15 -76.640625 12.449219 -73.941406 12.449219 -70.792969 L 12.449219 -4.648438 C 12.449219 -1.351562 15 1.199219 18.296875 1.199219 C 21.597656 1.199219 24.148438 -1.351562 24.148438 -4.648438 Z M 24.148438 -4.648438 "/></g></g></g><g fill="rgb(100%, 100%, 100%)" fill-opacity="1"><g transform="translate(404.421251, 132.192879)"><g><path d="M 31.796875 -76.492188 C 12.75 -76.492188 6.75 -64.042969 6.75 -46.195312 L 6.75 -27.148438 C 6.75 -10.347656 14.847656 1.199219 30.597656 1.199219 C 38.097656 1.199219 45.296875 -1.351562 51.894531 -4.648438 C 53.695312 -1.800781 56.394531 0.148438 59.84375 0.148438 C 62.394531 0.148438 65.09375 -1.949219 65.09375 -5.097656 C 65.09375 -6.449219 64.644531 -7.199219 64.042969 -8.097656 C 61.042969 -10.347656 60.144531 -12.898438 60.144531 -17.097656 L 60.144531 -103.039062 C 60.144531 -106.1875 58.042969 -108.738281 54.292969 -108.738281 C 50.546875 -108.738281 48.445312 -106.1875 48.445312 -103.039062 L 48.445312 -73.644531 C 43.046875 -75.441406 36.746094 -76.492188 31.796875 -76.492188 Z M 48.445312 -17.097656 C 48.445312 -16.046875 48.445312 -14.847656 48.746094 -13.648438 C 43.644531 -10.949219 37.796875 -9.300781 32.996094 -9.300781 C 23.097656 -9.300781 18.449219 -15.449219 18.449219 -27.148438 L 18.449219 -46.195312 C 18.449219 -60.144531 22.347656 -66.292969 33.296875 -66.292969 C 36.894531 -66.292969 43.496094 -65.242188 48.445312 -63.144531 Z M 48.445312 -17.097656 "/></g></g></g><g fill="rgb(100%, 100%, 100%)" fill-opacity="1"><g transform="translate(477.609831, 132.192879)"><g><path d="M 34.796875 -9.148438 C 23.996094 -9.148438 18.449219 -14.546875 18.449219 -22.949219 L 18.449219 -31.796875 C 23.699219 -30.898438 29.246094 -30.445312 33.746094 -30.445312 C 51.59375 -30.445312 59.09375 -38.847656 59.09375 -52.644531 C 59.09375 -67.492188 50.84375 -77.09375 34.195312 -77.09375 C 16.347656 -77.09375 6.75 -66.144531 6.75 -51.746094 L 6.75 -23.699219 C 6.75 -9.597656 16.5 1.199219 33.445312 1.199219 C 41.546875 1.199219 57.746094 -1.199219 57.746094 -8.550781 C 57.746094 -11.25 55.496094 -13.796875 52.496094 -13.796875 C 51.445312 -13.796875 50.695312 -13.5 50.394531 -13.347656 C 45.144531 -10.949219 41.097656 -9.148438 34.796875 -9.148438 Z M 47.546875 -52.644531 C 47.546875 -46.496094 45.59375 -40.347656 34.195312 -40.347656 C 31.195312 -40.347656 23.996094 -40.644531 18.449219 -41.394531 L 18.449219 -52.792969 C 18.449219 -61.195312 24.148438 -66.441406 33.898438 -66.441406 C 42.597656 -66.441406 47.546875 -62.394531 47.546875 -52.644531 Z M 47.546875 -52.644531 "/></g></g></g><g fill="rgb(100%, 100%, 100%)" fill-opacity="1"><g transform="translate(542.849666, 132.192879)"><g><path d="M 11.097656 -14.097656 C 11.097656 -0.601562 16.796875 1.199219 20.546875 1.199219 C 23.546875 1.199219 25.949219 -1.199219 25.949219 -4.199219 C 25.949219 -5.398438 25.347656 -6.449219 24.898438 -7.050781 C 23.097656 -8.847656 22.796875 -10.800781 22.796875 -14.097656 L 22.796875 -102.890625 C 22.796875 -106.1875 20.246094 -108.738281 16.949219 -108.738281 C 13.648438 -108.738281 11.097656 -106.039062 11.097656 -102.890625 Z M 11.097656 -14.097656 "/></g></g></g><g fill="rgb(100%, 100%, 100%)" fill-opacity="1"><g transform="translate(577.044337, 132.192879)"><g><path d="M 25.496094 -100.191406 C 25.496094 -104.238281 22.347656 -107.390625 18.296875 -107.390625 C 14.25 -107.390625 11.097656 -104.238281 11.097656 -100.191406 C 11.097656 -96.289062 14.25 -92.992188 18.296875 -92.992188 C 22.347656 -92.992188 25.496094 -96.289062 25.496094 -100.191406 Z M 24.148438 -4.648438 L 24.148438 -70.792969 C 24.148438 -73.941406 21.597656 -76.640625 18.296875 -76.640625 C 15 -76.640625 12.449219 -73.941406 12.449219 -70.792969 L 12.449219 -4.648438 C 12.449219 -1.351562 15 1.199219 18.296875 1.199219 C 21.597656 1.199219 24.148438 -1.351562 24.148438 -4.648438 Z M 24.148438 -4.648438 "/></g></g></g><g fill="rgb(100%, 100%, 100%)" fill-opacity="1"><g transform="translate(613.788614, 132.192879)"><g><path d="M 6.75 -26.398438 C 6.75 -10.949219 14.847656 1.199219 33.597656 1.199219 C 40.644531 1.199219 54.445312 -0.898438 54.445312 -7.949219 C 54.445312 -10.648438 52.195312 -13.046875 49.34375 -13.046875 C 48.59375 -13.046875 47.84375 -12.898438 46.945312 -12.597656 C 43.34375 -10.800781 40.046875 -9.148438 34.796875 -9.148438 C 23.097656 -9.148438 18.449219 -15.449219 18.449219 -26.398438 L 18.449219 -49.046875 C 18.449219 -59.992188 23.097656 -66.292969 34.796875 -66.292969 C 40.046875 -66.292969 43.34375 -64.644531 46.945312 -62.84375 C 47.84375 -62.542969 48.59375 -62.394531 49.34375 -62.394531 C 52.195312 -62.394531 54.445312 -64.792969 54.445312 -67.492188 C 54.445312 -74.542969 40.644531 -76.640625 33.597656 -76.640625 C 14.847656 -76.640625 6.75 -64.492188 6.75 -49.046875 Z M 6.75 -26.398438 "/></g></g></g><g fill="rgb(1.959229%, 100%, 85.879517%)" fill-opacity="1"><g transform="translate(672.723531, 132.192879)"><g><path d="M 37.496094 -45.445312 L 61.34375 -2.851562 C 62.542969 -0.75 64.34375 1.5 67.191406 1.5 C 70.042969 1.5 72.742188 -1.5 72.742188 -4.648438 C 72.742188 -5.847656 72.292969 -7.199219 71.84375 -7.949219 L 44.546875 -55.042969 L 69.59375 -98.089844 C 70.042969 -98.988281 70.34375 -100.191406 70.34375 -101.238281 C 70.34375 -104.539062 67.792969 -107.238281 64.945312 -107.238281 C 61.945312 -107.238281 59.695312 -104.238281 58.34375 -101.988281 L 37.496094 -64.644531 L 16.648438 -101.988281 C 15.148438 -104.691406 12.898438 -107.238281 10.199219 -107.238281 C 7.199219 -107.238281 4.648438 -104.390625 4.648438 -101.390625 C 4.648438 -100.339844 4.949219 -98.988281 5.398438 -98.089844 L 30.445312 -55.042969 L 3.148438 -7.949219 C 2.699219 -7.199219 2.25 -5.847656 2.25 -4.648438 C 2.25 -1.5 4.949219 1.5 7.949219 1.5 C 10.800781 1.5 12.597656 -0.898438 13.648438 -2.851562 Z M 37.496094 -45.445312 "/></g></g></g><g fill="rgb(100%, 100%, 100%)" fill-opacity="1"><g transform="translate(147.465213, 196.758371)"><g><path d="M 21.742188 -37.003906 C 12.167969 -37.003906 7.632812 -30.742188 6.40625 -22.171875 L 5.113281 -13.03125 C 3.960938 -4.96875 7.199219 0.574219 14.328125 0.574219 C 17.925781 0.574219 21.09375 -0.792969 24.695312 -2.953125 C 25.484375 -0.863281 27.285156 0.359375 29.515625 0.359375 C 31.171875 0.359375 33.117188 -0.359375 33.117188 -2.449219 C 33.117188 -3.527344 32.539062 -4.535156 31.316406 -4.535156 C 31.027344 -4.535156 30.957031 -4.464844 30.742188 -4.464844 C 29.875 -4.464844 29.515625 -5.183594 29.734375 -6.625 L 31.964844 -22.460938 C 33.261719 -31.820312 30.453125 -37.003906 21.742188 -37.003906 Z M 24.261719 -7.558594 C 21.957031 -5.832031 19.148438 -4.464844 16.199219 -4.464844 C 11.878906 -4.464844 9.933594 -7.414062 10.726562 -13.03125 L 12.023438 -22.171875 C 12.957031 -29.011719 15.191406 -31.820312 20.660156 -31.820312 C 25.628906 -31.820312 27.355469 -29.515625 26.636719 -24.332031 Z M 24.261719 -7.558594 "/></g></g></g><g fill="rgb(100%, 100%, 100%)" fill-opacity="1"><g transform="translate(239.043355, 196.758371)"><g><path d="M 5.039062 -12.671875 C 3.960938 -5.253906 7.054688 0.574219 16.054688 0.574219 C 19.511719 0.574219 26.710938 -0.503906 26.710938 -4.105469 C 26.710938 -5.253906 25.773438 -6.261719 24.550781 -6.261719 C 24.191406 -6.261719 23.828125 -6.261719 23.398438 -6.046875 C 21.527344 -5.253906 19.796875 -4.390625 17.277344 -4.390625 C 11.664062 -4.390625 9.863281 -7.414062 10.582031 -12.671875 L 12.167969 -23.542969 C 12.886719 -28.796875 15.550781 -31.820312 21.164062 -31.820312 C 23.683594 -31.820312 25.125 -30.957031 26.78125 -30.164062 C 27.140625 -29.949219 27.5 -29.949219 27.859375 -29.949219 C 29.371094 -29.949219 30.667969 -31.246094 30.667969 -32.683594 C 30.667969 -35.851562 24.550781 -36.789062 21.308594 -36.789062 C 12.3125 -36.789062 7.558594 -30.957031 6.550781 -23.542969 Z M 5.039062 -12.671875 "/></g></g></g><g fill="rgb(100%, 100%, 100%)" fill-opacity="1"><g transform="translate(324.214534, 196.758371)"><g><path d="M 21.742188 -37.003906 C 12.167969 -37.003906 7.632812 -30.742188 6.40625 -22.171875 L 5.113281 -13.03125 C 3.960938 -4.96875 7.199219 0.574219 14.328125 0.574219 C 17.925781 0.574219 21.09375 -0.792969 24.695312 -2.953125 C 25.484375 -0.863281 27.285156 0.359375 29.515625 0.359375 C 31.171875 0.359375 33.117188 -0.359375 33.117188 -2.449219 C 33.117188 -3.527344 32.539062 -4.535156 31.316406 -4.535156 C 31.027344 -4.535156 30.957031 -4.464844 30.742188 -4.464844 C 29.875 -4.464844 29.515625 -5.183594 29.734375 -6.625 L 31.964844 -22.460938 C 33.261719 -31.820312 30.453125 -37.003906 21.742188 -37.003906 Z M 24.261719 -7.558594 C 21.957031 -5.832031 19.148438 -4.464844 16.199219 -4.464844 C 11.878906 -4.464844 9.933594 -7.414062 10.726562 -13.03125 L 12.023438 -22.171875 C 12.957031 -29.011719 15.191406 -31.820312 20.660156 -31.820312 C 25.628906 -31.820312 27.355469 -29.515625 26.636719 -24.332031 Z M 24.261719 -7.558594 "/></g></g></g><g fill="rgb(100%, 100%, 100%)" fill-opacity="1"><g transform="translate(415.792671, 196.758371)"><g><path d="M 20.445312 -36.714844 C 11.304688 -36.714844 7.632812 -30.742188 6.40625 -22.171875 L 5.113281 -13.03125 C 3.960938 -4.96875 7.054688 0.574219 14.613281 0.574219 C 18.214844 0.574219 21.886719 -0.648438 25.269531 -2.230469 C 25.917969 -0.863281 27.070312 0.0703125 28.726562 0.0703125 C 30.09375 0.0703125 31.605469 -1.078125 31.605469 -2.734375 C 31.605469 -3.167969 31.460938 -3.527344 31.316406 -3.886719 C 30.019531 -4.96875 29.734375 -6.191406 30.019531 -8.207031 L 35.851562 -49.457031 C 36.066406 -50.96875 35.203125 -52.195312 33.40625 -52.195312 C 31.605469 -52.195312 30.453125 -50.96875 30.238281 -49.457031 L 28.222656 -35.347656 C 25.773438 -36.210938 22.820312 -36.714844 20.445312 -36.714844 Z M 24.40625 -8.207031 C 24.332031 -7.703125 24.261719 -7.128906 24.332031 -6.550781 C 21.742188 -5.253906 18.789062 -4.464844 16.484375 -4.464844 C 11.734375 -4.464844 9.933594 -7.414062 10.726562 -13.03125 L 12.023438 -22.171875 C 12.957031 -28.867188 15.191406 -31.820312 20.445312 -31.820312 C 22.171875 -31.820312 25.269531 -31.316406 27.5 -30.308594 Z M 24.40625 -8.207031 "/></g></g></g><g fill="rgb(100%, 100%, 100%)" fill-opacity="1"><g transform="translate(507.802753, 196.758371)"><g><path d="M 17.351562 -4.390625 C 12.167969 -4.390625 9.863281 -6.984375 10.4375 -11.015625 L 11.015625 -15.261719 C 13.460938 -14.832031 16.125 -14.613281 18.285156 -14.613281 C 28.078125 -14.613281 32.109375 -19.652344 32.109375 -27.214844 C 32.109375 -33.1875 28.652344 -37.003906 21.597656 -37.003906 C 13.03125 -37.003906 7.773438 -31.75 6.765625 -24.835938 L 4.824219 -11.375 C 3.886719 -4.609375 7.847656 0.574219 15.980469 0.574219 C 20.015625 0.574219 28.292969 -0.648438 28.292969 -4.390625 C 28.292969 -5.542969 27.429688 -6.625 26.132812 -6.625 C 25.628906 -6.625 25.269531 -6.480469 25.125 -6.40625 C 22.460938 -5.253906 20.375 -4.390625 17.351562 -4.390625 Z M 26.492188 -26.566406 C 26.492188 -22.316406 24.621094 -19.367188 19.148438 -19.367188 C 17.710938 -19.367188 14.253906 -19.511719 11.589844 -19.871094 L 12.382812 -25.339844 C 12.957031 -29.371094 16.054688 -31.894531 20.734375 -31.894531 C 24.40625 -31.894531 26.492188 -30.308594 26.492188 -26.566406 Z M 26.492188 -26.566406 "/></g></g></g><g fill="rgb(100%, 100%, 100%)" fill-opacity="1"><g transform="translate(595.997422, 196.758371)"><g><path d="M 45.929688 -6.765625 C 44.996094 -0.289062 47.585938 0.574219 49.386719 0.574219 C 50.96875 0.574219 52.410156 -0.71875 52.410156 -2.230469 C 52.410156 -2.734375 52.195312 -3.167969 52.050781 -3.382812 C 51.332031 -4.246094 51.332031 -5.183594 51.546875 -6.765625 L 54.066406 -24.765625 C 55.074219 -32.035156 51.546875 -37.003906 43.769531 -37.003906 C 39.738281 -37.003906 36.140625 -35.636719 32.828125 -33.332031 C 31.316406 -35.707031 28.941406 -37.003906 24.980469 -37.003906 C 21.238281 -37.003906 17.421875 -35.78125 14.039062 -33.765625 C 13.460938 -34.917969 12.597656 -35.707031 11.375 -35.707031 C 9.71875 -35.707031 8.351562 -34.484375 8.351562 -32.972656 C 8.351562 -32.398438 8.640625 -31.964844 8.710938 -31.75 C 9.214844 -30.667969 9.863281 -30.667969 9.285156 -26.710938 L 5.832031 -2.230469 C 5.617188 -0.71875 6.40625 0.503906 8.277344 0.503906 C 10.152344 0.503906 11.230469 -0.71875 11.445312 -2.230469 L 14.902344 -26.710938 C 14.972656 -27.355469 14.972656 -28.078125 14.972656 -28.941406 C 17.207031 -30.453125 20.589844 -31.820312 23.757812 -31.820312 C 28.867188 -31.820312 29.230469 -28.222656 28.507812 -23.109375 L 25.558594 -2.230469 C 25.339844 -0.71875 26.132812 0.503906 28.003906 0.503906 C 29.875 0.503906 30.957031 -0.71875 31.171875 -2.230469 L 34.339844 -24.765625 C 34.484375 -25.917969 34.484375 -26.996094 34.414062 -28.003906 C 36.429688 -30.164062 39.8125 -31.820312 42.90625 -31.820312 C 47.300781 -31.820312 49.027344 -28.652344 48.449219 -24.621094 Z M 45.929688 -6.765625 "/></g></g></g><g fill="rgb(100%, 100%, 100%)" fill-opacity="1"><g transform="translate(708.884136, 196.758371)"><g><path d="M 27.140625 -7.703125 C 24.695312 -5.398438 21.597656 -4.390625 18.644531 -4.390625 C 13.535156 -4.390625 12.023438 -7.488281 12.742188 -12.597656 L 15.695312 -34.050781 C 15.910156 -35.5625 15.117188 -36.789062 13.320312 -36.789062 C 11.519531 -36.789062 10.296875 -35.5625 10.078125 -34.050781 L 7.128906 -12.597656 C 6.046875 -5.113281 8.0625 0.503906 16.773438 0.503906 C 20.445312 0.503906 23.542969 -0.503906 26.347656 -2.160156 L 25.628906 2.878906 C 24.910156 8.136719 22.246094 11.160156 16.628906 11.160156 C 14.109375 11.160156 12.671875 10.367188 11.015625 9.503906 C 10.65625 9.359375 10.296875 9.285156 9.933594 9.285156 C 8.421875 9.285156 7.128906 10.582031 7.128906 12.023438 C 7.128906 15.191406 13.246094 16.125 16.558594 16.125 C 25.558594 16.125 30.238281 10.296875 31.246094 2.878906 L 36.429688 -34.050781 C 36.644531 -35.5625 35.925781 -36.789062 34.050781 -36.789062 C 32.179688 -36.789062 31.027344 -35.5625 30.8125 -34.050781 Z M 27.140625 -7.703125 "/></g></g></g></svg>