<svg class="svg-icon" style="width: 1em; height: 1em;vertical-align: middle;fill: currentColor;overflow: hidden;" viewBox="0 0 1024 1024" version="1.1" xmlns="http://www.w3.org/2000/svg"><path d="M512 1024a510.421333 510.421333 0 0 1-371.584-160A511.850667 511.850667 0 1 1 512 1024z m309.632-160a466.965333 466.965333 0 0 0-619.264 0 467.477333 467.477333 0 0 0 619.264 0zM746.666667 469.333333a234.666667 234.666667 0 1 0-234.666667 234.666667 234.666667 234.666667 0 0 0 234.666667-234.666667zM512 42.666667A468.864 468.864 0 0 0 171.370667 834.133333a510.528 510.528 0 0 1 219.52-115.690666 277.333333 277.333333 0 1 1 242.218666 0 510.528 510.528 0 0 1 219.52 115.690666A468.864 468.864 0 0 0 512 42.666667z"  /></svg>